<svg width="24" height="24" viewBox="0 0 24 24" fill="none" xmlns="http://www.w3.org/2000/svg">
<g clip-path="url(#clip0_1205_2526)">
<path d="M23.9873 12.2247C23.9873 11.2414 23.9057 10.5239 23.729 9.77979H12.239V14.2178H18.9834C18.8475 15.3207 18.1132 16.9816 16.4815 18.0977L16.4586 18.2463L20.0915 20.9965L20.3432 21.021C22.6547 18.9349 23.9873 15.8654 23.9873 12.2247Z" fill="#4285F4"/>
<path d="M12.239 23.9173C15.5432 23.9173 18.3171 22.8543 20.3432 21.0206L16.4814 18.0973C15.448 18.8016 14.0611 19.2932 12.239 19.2932C9.00283 19.2932 6.25615 17.2071 5.27703 14.3237L5.13351 14.3356L1.35597 17.1925L1.30656 17.3267C3.31898 21.2332 7.45265 23.9173 12.239 23.9173Z" fill="#34A853"/>
<path d="M5.27704 14.3238C5.01869 13.5797 4.86917 12.7824 4.86917 11.9586C4.86917 11.1347 5.01869 10.3375 5.26344 9.59342L5.2566 9.43494L1.43171 6.53223L1.30657 6.59039C0.477156 8.21149 0.00123596 10.0319 0.00123596 11.9586C0.00123596 13.8853 0.477156 15.7056 1.30657 17.3267L5.27704 14.3238Z" fill="#FBBC05"/>
<path d="M12.239 4.62403C14.537 4.62403 16.0871 5.59401 16.9709 6.40461L20.4247 3.10928C18.3036 1.1826 15.5432 0 12.239 0C7.45265 0 3.31898 2.68406 1.30656 6.59056L5.26344 9.59359C6.25615 6.7102 9.00283 4.62403 12.239 4.62403Z" fill="#EB4335"/>
</g>
<defs>
<clipPath id="clip0_1205_2526">
<rect width="24" height="24" fill="white"/>
</clipPath>
</defs>
</svg>
