<svg width="1920" height="1080" viewBox="0 0 1920 1080" fill="none" xmlns="http://www.w3.org/2000/svg">
<g clip-path="url(#clip0_753_862)">
<rect width="1920" height="1080" fill="#F7FAFF"/>
<circle cx="1463" cy="316" r="408" fill="#E4F0FF"/>
<circle cx="690" cy="828" r="122" fill="#E4F0FF"/>
<circle cx="411" cy="393" r="46" fill="#E4F0FF"/>
<circle cx="221" cy="315" r="22" fill="#E4F0FF"/>
<path d="M557.759 197H385.18C377.9 197 372 202.9 372 210.18V271.821C372 279.1 377.9 285 385.18 285H557.759C565.038 285 570.938 279.1 570.938 271.821V210.18C570.938 202.9 565.038 197 557.759 197Z" fill="url(#paint0_linear_753_862)"/>
<path d="M436.677 211.011H399.235C393.013 211.011 387.968 216.056 387.968 222.279V259.721C387.968 265.943 393.013 270.988 399.235 270.988H436.677C442.901 270.988 447.945 265.943 447.945 259.721V222.279C447.945 216.056 442.901 211.011 436.677 211.011Z" fill="white"/>
<path d="M463.63 233.443H505.416" stroke="white" stroke-width="10.2877" stroke-miterlimit="10" stroke-linecap="round"/>
<path opacity="0.4" d="M463.63 252.944H549.983" stroke="white" stroke-width="10.2877" stroke-miterlimit="10" stroke-linecap="round"/>
<path d="M394.942 256.696L404.502 243.322C404.851 242.834 405.311 242.434 405.845 242.157C406.378 241.88 406.97 241.734 407.571 241.729C408.172 241.725 408.765 241.863 409.302 242.133C409.839 242.402 410.306 242.794 410.663 243.279L422.669 259.582C423.058 260.109 423.292 260.733 423.347 261.387C423.401 262.039 423.273 262.693 422.978 263.277C422.682 263.862 422.231 264.353 421.673 264.695C421.116 265.038 420.474 265.22 419.82 265.22H399.327C398.336 265.22 397.366 264.947 396.52 264.431C395.675 263.915 394.987 263.176 394.534 262.296C394.082 261.415 393.88 260.426 393.951 259.438C394.024 258.45 394.367 257.501 394.942 256.696Z" fill="#1C85E8"/>
<path d="M420.732 253.301L427.858 263.27C428.289 263.874 428.858 264.365 429.516 264.703C430.176 265.043 430.907 265.22 431.647 265.22H434.493C435.803 265.22 437.089 264.876 438.224 264.223C439.359 263.569 440.303 262.631 440.961 261.498C441.62 260.365 441.969 259.08 441.974 257.771C441.98 256.462 441.642 255.173 440.993 254.035L430.98 236.459C430.714 235.991 430.324 235.608 429.852 235.348C429.382 235.09 428.849 234.966 428.312 234.993C427.775 235.018 427.254 235.192 426.811 235.495C426.367 235.798 426.015 236.218 425.795 236.709L420.299 248.96C419.986 249.658 419.862 250.426 419.937 251.188C420.013 251.95 420.288 252.679 420.732 253.301Z" fill="#1C85E8"/>
<path d="M411.007 231.088C414.302 231.088 416.974 228.418 416.974 225.123C416.974 221.828 414.302 219.157 411.007 219.157C407.713 219.157 405.042 221.828 405.042 225.123C405.042 228.418 407.713 231.088 411.007 231.088Z" fill="url(#paint1_linear_753_862)"/>
<path d="M392.683 316H226.317C223.381 316 221 318.381 221 321.317V373.27C221 376.206 223.381 378.587 226.317 378.587H392.683C395.619 378.587 398 376.206 398 373.27V321.317C398 318.381 395.619 316 392.683 316Z" fill="#1C85E8"/>
<path d="M276.02 346.985L280.19 346.986C280.555 346.985 280.905 346.84 281.162 346.581C281.42 346.324 281.565 345.974 281.565 345.609C281.565 345.244 281.42 344.895 281.162 344.636C280.905 344.378 280.555 344.233 280.19 344.232H276.02C275.655 344.232 275.305 344.378 275.047 344.635C274.788 344.894 274.643 345.244 274.643 345.609C274.643 345.974 274.788 346.324 275.047 346.582C275.305 346.841 275.655 346.985 276.02 346.985Z" fill="white"/>
<path d="M268.013 332.055C268.013 331.834 267.96 331.617 267.858 331.421C267.756 331.225 267.609 331.056 267.428 330.929C267.247 330.802 267.039 330.72 266.82 330.691C266.601 330.662 266.378 330.685 266.171 330.76L240.332 340.062H234.317C233.952 340.062 233.602 340.207 233.344 340.465C233.085 340.723 232.941 341.073 232.94 341.438V349.779C232.94 350.144 233.085 350.494 233.344 350.752C233.602 351.011 233.952 351.156 234.317 351.156H239.196L239.196 362.29C239.196 362.471 239.231 362.65 239.3 362.817C239.37 362.984 239.471 363.136 239.599 363.263C239.727 363.391 239.879 363.492 240.046 363.562C240.213 363.631 240.392 363.667 240.572 363.667H247.87C248.051 363.667 248.23 363.631 248.397 363.562C248.564 363.492 248.716 363.391 248.844 363.263C248.972 363.136 249.073 362.984 249.142 362.817C249.211 362.65 249.247 362.471 249.247 362.29V354.365L266.171 360.457C266.378 360.532 266.601 360.556 266.82 360.527C267.039 360.497 267.247 360.415 267.428 360.288C267.609 360.161 267.756 359.993 267.858 359.797C267.96 359.601 268.013 359.383 268.013 359.162V332.055ZM235.693 348.402V342.815H239.196V348.402H235.693ZM246.494 360.913H241.949V351.738L246.494 353.374V360.913ZM241.949 348.812V342.406L265.26 334.014V357.204L241.949 348.812Z" fill="white"/>
<path d="M275.951 356.103L273.865 354.018C273.738 353.89 273.586 353.789 273.419 353.72C273.252 353.651 273.073 353.615 272.892 353.615C272.711 353.615 272.532 353.651 272.365 353.72C272.199 353.789 272.047 353.89 271.919 354.018C271.791 354.146 271.689 354.298 271.62 354.465C271.551 354.632 271.516 354.811 271.516 354.991C271.516 355.172 271.551 355.351 271.62 355.518C271.689 355.685 271.791 355.837 271.919 355.965L274.004 358.05C274.132 358.178 274.283 358.279 274.451 358.348C274.617 358.418 274.797 358.453 274.977 358.453C275.158 358.453 275.337 358.418 275.504 358.348C275.671 358.279 275.823 358.178 275.951 358.05C276.078 357.922 276.18 357.77 276.249 357.604C276.318 357.436 276.354 357.258 276.354 357.077C276.354 356.896 276.318 356.717 276.249 356.55C276.18 356.383 276.078 356.231 275.951 356.103Z" fill="white"/>
<path d="M271.919 337.199C272.177 337.457 272.527 337.602 272.892 337.602C273.257 337.602 273.607 337.457 273.865 337.199L275.951 335.114C276.209 334.856 276.354 334.506 276.354 334.14C276.354 333.776 276.209 333.425 275.951 333.167C275.692 332.909 275.342 332.764 274.977 332.764C274.612 332.764 274.262 332.909 274.004 333.167L271.919 335.252C271.661 335.51 271.516 335.86 271.516 336.226C271.516 336.591 271.661 336.941 271.919 337.199Z" fill="white"/>
<path d="M298.793 333.16H326.019" stroke="white" stroke-width="6.19187" stroke-miterlimit="10" stroke-linecap="round"/>
<path d="M298.793 363.645H349.246" stroke="white" stroke-width="6.19187" stroke-miterlimit="10" stroke-linecap="round"/>
<path opacity="0.4" d="M298.793 348.402H363.376" stroke="white" stroke-width="6.19187" stroke-miterlimit="10" stroke-linecap="round"/>
<path d="M1463.11 790.513L1433.13 830.363C1432.43 831.302 1431.38 831.922 1430.22 832.086C1429.05 832.251 1427.87 831.947 1426.93 831.24L1424.15 829.147L1459.45 782.218L1462.23 784.311C1463.17 785.017 1463.79 786.067 1463.96 787.23C1464.12 788.394 1463.82 789.574 1463.11 790.513Z" fill="#5661AE"/>
<path d="M1434.83 767.177L1445.64 775.96L1434.66 792.903L1422.48 783.602L1434.83 767.177Z" fill="#BC775C"/>
<path d="M1439.63 771.457L1426.17 786.14L1422.9 783.556L1435.5 768.066L1439.63 771.457Z" fill="#93523E" stroke="#93523E" stroke-width="0.591377"/>
<path d="M1444.19 774.872C1444.19 774.872 1441.16 785.545 1431.16 791.012L1422.13 826.318C1422.41 828.345 1424.68 829.647 1426.18 830.129C1426.51 830.233 1426.87 830.232 1427.2 830.126C1427.53 830.019 1427.82 829.812 1428.03 829.534L1460.07 786.934C1460.6 786.224 1460.84 785.332 1460.72 784.449C1460.61 783.568 1460.15 782.766 1459.45 782.218C1456.65 780.022 1452.35 776.713 1450.49 775.578C1447.62 773.822 1445.57 773.416 1444.19 774.872Z" fill="#1C85E8"/>
<path d="M1429.07 798.333L1434.21 797.231C1434.39 797.191 1434.59 797.197 1434.77 797.25C1434.96 797.303 1435.13 797.4 1435.27 797.533C1435.4 797.666 1435.51 797.832 1435.57 798.014C1435.63 798.197 1435.64 798.391 1435.61 798.58C1435.57 798.812 1435.46 799.026 1435.29 799.194C1435.13 799.362 1434.92 799.478 1434.68 799.524L1428.38 800.798L1429.07 798.333Z" fill="white"/>
<path d="M1427.86 803.928L1432.97 802.814C1433.16 802.773 1433.35 802.78 1433.54 802.833C1433.72 802.885 1433.89 802.982 1434.03 803.115C1434.16 803.249 1434.27 803.414 1434.33 803.597C1434.39 803.779 1434.4 803.973 1434.37 804.163C1434.33 804.394 1434.22 804.608 1434.05 804.776C1433.89 804.945 1433.68 805.06 1433.45 805.106L1427.22 806.397L1427.86 803.928Z" fill="white"/>
<path d="M1426.3 810.018L1431.35 808.889C1431.54 808.849 1431.73 808.856 1431.92 808.908C1432.1 808.961 1432.27 809.058 1432.41 809.191C1432.55 809.325 1432.65 809.49 1432.71 809.672C1432.77 809.855 1432.78 810.049 1432.75 810.238C1432.71 810.47 1432.6 810.684 1432.44 810.852C1432.27 811.021 1432.06 811.136 1431.83 811.182L1425.68 812.423L1426.3 810.018Z" fill="white"/>
<path d="M1332.1 720.735L1417.66 789.663L1437.17 766.918L1362.37 696.74L1332.1 720.735Z" fill="#1F2D49"/>
<path d="M1377.99 711.396V757.707L1417.66 789.664L1423.35 753.952L1377.99 711.396Z" fill="#0D1B33"/>
<path d="M1339.7 594.016L1325.63 706.158H1364.95L1399.11 594.579L1339.7 594.016Z" fill="#1F2D49"/>
<path d="M1373.45 678.376L1380.06 622.744H1396.3L1373.45 678.376Z" fill="#0D1B33"/>
<path d="M1408.75 832.912H1358.88C1357.71 832.912 1356.58 832.445 1355.75 831.615C1354.92 830.784 1354.45 829.657 1354.45 828.482V825.001H1413.18V828.482C1413.18 829.657 1412.71 830.784 1411.88 831.615C1411.05 832.445 1409.92 832.912 1408.75 832.912Z" fill="#5661AE"/>
<path d="M1410.4 796.287L1409.88 810.205L1389.74 811.615L1389.85 796.287H1410.4Z" fill="#BC775C"/>
<path d="M1409.86 802.696L1390.04 800.764L1390.13 796.593L1410.09 797.357L1409.86 802.696Z" fill="#93523E" stroke="#93523E" stroke-width="0.591377"/>
<path d="M1409.88 808.392C1409.88 808.392 1399.52 812.381 1389.14 807.678L1355.5 821.684C1354.05 823.132 1354.37 825.724 1354.89 827.217C1355.01 827.544 1355.22 827.826 1355.51 828.026C1355.79 828.226 1356.13 828.332 1356.47 828.33H1409.78C1410.67 828.331 1411.52 827.983 1412.16 827.36C1412.8 826.737 1413.16 825.89 1413.18 825.001C1413.25 821.442 1413.31 816.02 1413.1 813.85C1412.77 810.496 1411.87 808.614 1409.88 808.392Z" fill="#1C85E8"/>
<path d="M1382.04 810.408L1386.01 813.852C1386.15 813.978 1386.26 814.138 1386.33 814.317C1386.4 814.496 1386.42 814.689 1386.4 814.88C1386.38 815.071 1386.31 815.252 1386.2 815.409C1386.09 815.567 1385.94 815.695 1385.77 815.781C1385.56 815.888 1385.32 815.929 1385.09 815.899C1384.85 815.868 1384.64 815.768 1384.46 815.612L1379.65 811.336L1382.04 810.408Z" fill="white"/>
<path d="M1376.84 812.802L1380.8 816.218C1380.94 816.344 1381.06 816.503 1381.13 816.682C1381.19 816.861 1381.22 817.054 1381.19 817.245C1381.17 817.435 1381.1 817.617 1380.99 817.775C1380.88 817.931 1380.73 818.059 1380.56 818.146C1380.35 818.253 1380.12 818.294 1379.88 818.264C1379.65 818.234 1379.43 818.134 1379.25 817.977L1374.48 813.781L1376.84 812.802Z" fill="white"/>
<path d="M1371.03 815.218L1374.97 818.578C1375.12 818.704 1375.23 818.864 1375.3 819.043C1375.37 819.222 1375.39 819.416 1375.37 819.606C1375.34 819.797 1375.27 819.978 1375.16 820.136C1375.05 820.293 1374.91 820.421 1374.74 820.508C1374.53 820.614 1374.29 820.655 1374.06 820.625C1373.82 820.594 1373.6 820.495 1373.43 820.338L1368.74 816.172L1371.03 815.218Z" fill="white"/>
<path d="M1422.96 594.578C1422.64 600.265 1422.64 605.966 1422.96 611.652C1424.27 630.035 1420.09 683.716 1420.12 690.779C1420.15 697.843 1415.5 797.332 1415.5 797.332H1387.23C1387.23 797.332 1380.01 711.83 1379.84 702.045C1379.67 692.26 1377.99 594.98 1377.99 594.98L1422.96 594.578Z" fill="#1F2D49"/>
<path d="M1338.84 600.806L1422.96 611.652V594.578L1339.28 597.33L1338.84 600.806Z" fill="#0D1B33"/>
<path d="M1345.29 725.817C1356.15 725.817 1364.95 717.015 1364.95 706.158C1364.95 695.3 1356.15 686.498 1345.29 686.498C1334.43 686.498 1325.63 695.3 1325.63 706.158C1325.63 717.015 1334.43 725.817 1345.29 725.817Z" fill="#1F2D49"/>
<path d="M1403.8 606.966C1403.8 606.966 1400.03 614.106 1399.11 614.925C1398.19 615.744 1383 617.617 1380.06 618.67C1377.12 619.724 1375.71 621.316 1375.71 622.744H1411.41C1411.41 622.744 1412.34 621.883 1413 619.139C1413.67 616.394 1414.83 615.23 1414.83 615.23L1403.8 606.966Z" fill="#BC775C"/>
<path d="M1352.49 494.489C1354.84 482.898 1349.32 483.197 1347.48 481.354C1347.48 481.354 1340.59 475.67 1335.34 480.969C1329.78 486.573 1297.91 530.11 1297.91 530.11L1317.85 548.449L1321.6 543.977L1331.31 532.398L1341.69 520.021L1342.98 518.613L1356.99 502.745C1356.99 502.745 1351.17 500.59 1352.49 494.489Z" fill="#5661AE"/>
<path d="M1360.83 496.463C1363.52 488.438 1359.19 479.753 1351.17 477.065C1343.14 474.377 1334.46 478.704 1331.77 486.729C1329.08 494.754 1333.41 503.439 1341.44 506.127C1349.46 508.815 1358.15 504.488 1360.83 496.463Z" fill="#5661AE"/>
<path d="M1342.8 518.551C1343.2 516.128 1344 511.283 1344.87 506.868L1349.47 485.497C1349.47 485.497 1337.11 503.759 1331.42 516.479C1327.21 526.012 1322.32 535.727 1321.51 543.946L1331.22 532.366L1341.6 519.99L1342.8 518.551Z" fill="#465393"/>
<path d="M1277.99 481.094C1273.25 472.453 1275.53 470.985 1273.52 466.068C1271.53 461.27 1275.06 449.376 1271.68 450.997C1268.31 452.62 1267.26 456.929 1267.26 456.929C1264.95 452.846 1262.83 445.332 1257.3 444.472C1251.77 443.612 1251.28 445.351 1248.15 447.922C1239.82 454.856 1250.44 465.276 1252.22 469.244C1253.36 471.732 1261.74 479.314 1262.67 480.972L1266.89 487.093L1277.99 481.094Z" fill="#BC775C"/>
<path d="M1261.71 457.465L1254.98 445.032" stroke="#93523E" stroke-width="0.637694" stroke-linecap="round"/>
<path d="M1257.3 459.479L1249.96 447.899" stroke="#93523E" stroke-width="0.637694" stroke-linecap="round"/>
<path d="M1252.06 461.704L1247.86 454.692" stroke="#93523E" stroke-width="0.637694" stroke-linecap="round"/>
<path d="M1263.38 468.41C1263.41 464.105 1266 458.896 1266 458.896" stroke="#93523E" stroke-width="0.637694" stroke-linecap="round"/>
<path d="M1318.02 529.763L1277.47 475.765C1277.21 475.448 1276.85 475.238 1276.44 475.175C1276.04 475.112 1275.63 475.201 1275.28 475.425L1264.67 482.447C1264.16 482.789 1263.8 483.305 1263.66 483.897C1263.51 484.489 1263.59 485.114 1263.88 485.65L1296.49 545.784L1318.02 529.763Z" fill="#5661AE"/>
<path d="M1308.17 552.57C1315.67 552.57 1321.75 546.491 1321.75 538.992C1321.75 531.492 1315.67 525.414 1308.17 525.414C1300.67 525.414 1294.59 531.492 1294.59 538.992C1294.59 546.491 1300.67 552.57 1308.17 552.57Z" fill="#5661AE"/>
<path d="M1364.9 469.148C1364.9 469.148 1345.1 475.445 1341.2 477.079C1337.29 478.713 1337.03 485.249 1336.77 489.878C1336.59 493.122 1340.25 546.385 1340.49 577.232C1340.54 583.822 1339.31 588.003 1338.53 591.666C1337.74 595.329 1338.53 597.323 1338.53 597.323L1423.35 598.082C1423.35 598.082 1420.81 490.902 1420.29 487.09C1419.77 483.278 1423.86 479.994 1419.42 478.075L1387.03 469.148H1364.9Z" fill="white"/>
<path d="M1354.26 472.586C1354.26 472.586 1357.49 487.37 1359.61 499.203C1361.72 511.035 1362.37 608.988 1362.37 608.988C1362.37 608.988 1337.58 604.169 1334.22 598.475C1330.87 592.78 1337.33 567.194 1337.84 543.946C1338.34 520.699 1333.45 484.62 1338.58 478.362C1338.58 478.362 1339.9 477.056 1354.26 472.586Z" fill="#5661AE"/>
<path d="M1395.92 471.635C1395.92 471.635 1384.16 496.14 1384.88 503.608C1385.59 511.077 1385.64 574.768 1384.88 588.066C1384.4 596.156 1383.17 604.183 1381.19 612.041C1381.19 612.041 1413.28 614.313 1425.68 610.433C1425.68 610.433 1431.56 573.379 1427.7 560.143C1423.84 546.906 1420.88 478.111 1420.88 478.111L1395.92 471.635Z" fill="#5661AE"/>
<path d="M1404.6 504.565C1404.6 504.565 1405.8 548.974 1405.55 563.777C1405.39 573.001 1394.85 576.908 1394.82 582.249C1394.8 585.409 1403.14 581.71 1405.39 584.976C1407.64 588.242 1403.8 598.474 1403.8 598.474L1423.35 598.082L1431.18 560.075L1414.68 502.279L1404.6 504.565Z" fill="#465393"/>
<path d="M1365.31 459.249L1363.47 479.946C1363.47 479.946 1362.98 483.161 1368.57 484.178C1373 484.985 1382.21 479.776 1384.29 478.059C1388.91 474.245 1389.34 471.937 1388.85 470.169C1388.15 467.636 1385.87 449.789 1385.87 449.789L1365.31 459.249Z" fill="#BC775C"/>
<path d="M1364.1 476.187L1365.23 463.431L1375.09 458.563L1364.1 476.187Z" fill="#93523E" stroke="#93523E" stroke-width="0.591377"/>
<path d="M1354.35 420.078C1354.35 420.078 1350.58 436.987 1350.08 448.503C1349.57 460.122 1353.72 462.334 1358.87 463.202C1362.93 463.886 1369.24 463.936 1373.22 461.953C1380.46 458.337 1392.35 449.56 1393.9 447.857C1396.31 445.221 1396.14 433.463 1386.94 430.555C1380.25 428.439 1363.19 410.482 1354.35 420.078Z" fill="#BC775C"/>
<path d="M1354.39 421.881C1359.88 424.033 1370.21 422.619 1375.89 424.461C1381.56 426.309 1376.4 428.258 1376.65 433.733C1376.81 437.28 1377.08 444.057 1379.25 443.967C1381.43 443.878 1382.71 436.181 1387.3 436.474C1391.89 436.774 1394.05 438.733 1393.95 441.669C1393.85 444.598 1390.55 447.151 1387.95 448.506C1384.7 450.193 1383.35 449.486 1383.35 449.486C1383.35 449.486 1387.02 462.981 1387.57 462.446C1387.57 462.446 1391.52 460.216 1392.24 456.309C1392.24 456.309 1397.48 455.172 1396.32 449.925C1396.32 449.925 1399.59 448.877 1398.04 445.839C1398.04 445.839 1406.48 440.16 1402.08 433.212C1402.08 433.212 1406.09 429.216 1401.3 427.527C1401.3 427.527 1407.64 418.265 1398.63 416.29C1398.63 416.29 1399.23 411.93 1395.1 412.097C1395.1 412.097 1393.3 404.598 1384.29 407.555C1384.25 406.054 1383.75 404.6 1382.87 403.386C1381.99 402.171 1380.76 401.251 1379.34 400.748C1374.24 398.694 1370.92 401.521 1370.92 401.521C1370.92 401.521 1365.56 397.154 1362.75 403.556C1362.75 403.556 1358.7 401.487 1355.66 403.686C1352.62 405.878 1354.1 410.474 1354.1 410.474C1354.1 410.474 1350.62 409.659 1349.36 412.537C1347.57 416.586 1350.08 418.062 1350.08 418.062C1350.08 418.062 1344.42 424.749 1352.38 431.083L1354.39 421.881Z" fill="#493212"/>
<path d="M1368.21 438.574C1368.51 437.206 1368.02 435.939 1367.13 435.743C1366.23 435.548 1365.26 436.498 1364.96 437.865C1364.66 439.232 1365.15 440.5 1366.04 440.696C1366.94 440.891 1367.91 439.942 1368.21 438.574Z" fill="#080B09"/>
<path d="M1355.88 435.798C1356.18 434.431 1355.69 433.163 1354.8 432.967C1353.9 432.772 1352.93 433.721 1352.63 435.089C1352.34 436.457 1352.82 437.724 1353.72 437.92C1354.61 438.115 1355.58 437.166 1355.88 435.798Z" fill="#080B09"/>
<path d="M1358.32 439.429C1358.32 439.429 1359.85 442.377 1357.64 442.422C1355.52 442.393 1354.29 443.633 1356.42 445.43" stroke="#93523E" stroke-width="0.637694" stroke-linecap="round"/>
<path d="M1356.75 448.156L1356.76 448.158L1356.77 448.158C1358.08 448.253 1360.7 448.441 1362.44 448.595H1362.44C1362.49 448.599 1362.54 448.617 1362.58 448.647C1362.62 448.677 1362.66 448.717 1362.68 448.764C1362.7 448.811 1362.7 448.863 1362.7 448.913C1362.69 448.961 1362.67 449.007 1362.64 449.046C1362.26 449.467 1361.75 449.969 1361.19 450.401C1360.63 450.838 1360.02 451.19 1359.44 451.33C1358.87 451.466 1358.34 451.4 1357.85 451.015C1357.36 450.618 1356.89 449.852 1356.53 448.507L1356.53 448.484L1356.52 448.462C1356.5 448.427 1356.5 448.388 1356.5 448.349C1356.51 448.31 1356.52 448.273 1356.54 448.242C1356.57 448.21 1356.6 448.186 1356.63 448.171C1356.67 448.156 1356.71 448.151 1356.75 448.156Z" fill="#93523E" stroke="#93523E" stroke-width="0.591377"/>
<path d="M1372.5 434.068L1372.38 434.316C1372.23 434.693 1371.94 434.995 1371.57 435.159C1371.2 435.322 1370.78 435.333 1370.41 435.188L1363.98 432.529C1363.67 432.413 1363.4 432.183 1363.25 431.884C1363.1 431.584 1363.06 431.238 1363.15 430.913C1363.19 430.711 1363.28 430.522 1363.4 430.357C1363.53 430.191 1363.69 430.054 1363.87 429.954C1364.05 429.854 1364.25 429.794 1364.45 429.777C1364.66 429.76 1364.86 429.786 1365.06 429.856L1371.61 432.267C1371.79 432.323 1371.95 432.416 1372.09 432.538C1372.24 432.66 1372.35 432.81 1372.44 432.978C1372.52 433.146 1372.57 433.329 1372.58 433.516C1372.59 433.704 1372.57 433.891 1372.5 434.068Z" fill="#080B09"/>
<path d="M1350.83 428.087L1357.79 427.618C1357.99 427.607 1358.2 427.639 1358.39 427.714C1358.59 427.788 1358.76 427.902 1358.91 428.049C1359.05 428.196 1359.16 428.372 1359.24 428.565C1359.31 428.759 1359.34 428.965 1359.32 429.171C1359.32 429.508 1359.19 429.83 1358.95 430.074C1358.72 430.318 1358.41 430.465 1358.07 430.487L1351.16 431.228C1350.75 431.261 1350.35 431.133 1350.05 430.872C1349.74 430.611 1349.54 430.238 1349.51 429.836L1349.46 429.564C1349.45 429.376 1349.48 429.188 1349.54 429.012C1349.6 428.835 1349.7 428.673 1349.83 428.535C1349.96 428.397 1350.11 428.287 1350.28 428.21C1350.45 428.133 1350.64 428.092 1350.83 428.087Z" fill="#080B09"/>
<path d="M1421.52 488.76C1412.78 480.791 1410.2 485.682 1407.68 486.311C1407.68 486.311 1399.26 489.304 1401.11 496.533C1403.06 504.182 1424.04 553.891 1424.04 553.891L1450.51 547.625L1448.11 540.693L1443.16 526.414L1437.88 511.146L1437.33 509.315L1430.92 489.145C1430.92 489.145 1426.08 493.034 1421.52 488.76Z" fill="#5661AE"/>
<path d="M1425.83 504.227C1432.25 498.723 1433.01 489.049 1427.5 482.621C1422 476.191 1412.32 475.441 1405.89 480.945C1399.47 486.449 1398.72 496.123 1404.22 502.552C1409.72 508.981 1419.4 509.731 1425.83 504.227Z" fill="#5661AE"/>
<path d="M1423.84 546.906L1400.43 610.245C1400.3 610.634 1400.32 611.056 1400.49 611.43C1400.65 611.804 1400.95 612.103 1401.33 612.269L1412.98 617.388C1413.54 617.627 1414.17 617.649 1414.75 617.449C1415.32 617.25 1415.8 616.844 1416.1 616.309L1448.97 556.319L1423.84 546.906Z" fill="#5661AE"/>
<path d="M1436.93 563.764C1444.43 563.764 1450.51 557.684 1450.51 550.185C1450.51 542.686 1444.43 536.607 1436.93 536.607C1429.43 536.607 1423.35 542.686 1423.35 550.185C1423.35 557.684 1429.43 563.764 1436.93 563.764Z" fill="#5661AE"/>
<path d="M401.176 959.087H494.082V1004.21H401.176V959.087Z" fill="#FFCCB3"/>
<path d="M494.63 986.903C505.526 997.624 509.813 1050.42 509.238 1080.01H379.537C379.537 1080.01 379.771 1015.48 389.604 993.738C398.647 973.741 413.678 1003.24 494.63 986.903Z" fill="#1F2D49"/>
<path d="M416.787 753.746C416.787 753.746 406.026 741.471 385.137 739.685C364.248 737.899 357.998 756.195 358.89 767.436C359.783 778.677 376.154 801.893 372.88 811.715C369.606 821.538 385.001 816.775 386.679 797.131C388.357 777.486 394.608 750.103 411.574 759.925L416.787 753.746Z" fill="#080B09"/>
<path d="M413.521 748C413.521 748 410.948 746.509 409.084 749.988C407.22 753.467 403.739 760.531 408.151 762.404C412.562 764.277 413.521 748 413.521 748Z" fill="#1C85E8"/>
<path d="M473.192 861.134C473.192 861.134 456.504 879.863 462.054 885.871C473.046 898.218 502.28 921.424 511.86 929.106C512.273 929.423 512.745 929.654 513.249 929.788C513.753 929.921 514.278 929.953 514.794 929.883C515.31 929.812 515.806 929.64 516.256 929.376C516.705 929.113 517.097 928.763 517.411 928.347L540.062 898.566C540.948 897.42 541.361 895.977 541.217 894.536C541.072 893.094 540.381 891.763 539.285 890.815L495.41 852.98L473.192 861.134Z" fill="#1C85E8"/>
<path d="M499.535 884.945C499.535 884.945 520.331 897.305 522.205 922.14L518.064 927.461C518.064 927.461 515.463 931.993 511.859 929.106C508.256 926.219 491.585 912.866 491.585 912.866L499.535 884.945Z" fill="#0E66AF"/>
<path d="M480.091 894.36C467.119 894.36 456.603 883.844 456.603 870.873C456.603 857.901 467.119 847.385 480.091 847.385C493.063 847.385 503.579 857.901 503.579 870.873C503.579 883.844 493.063 894.36 480.091 894.36Z" fill="#1C85E8"/>
<path d="M541.252 944.497L561.779 917.32L542.347 902.234L539.302 899.782L518.01 927.626L521.718 930.293L541.252 944.497Z" fill="#FFCCB3"/>
<path d="M521.718 930.293C527.216 922.931 537.556 908.544 542.347 902.234L539.301 899.782L518.064 927.461L521.718 930.293Z" fill="#FF967C"/>
<path d="M551.828 948.267C542.411 948.267 534.778 940.634 534.778 931.217C534.778 921.801 542.411 914.167 551.828 914.167C561.244 914.167 568.878 921.801 568.878 931.217C568.878 940.634 561.244 948.267 551.828 948.267Z" fill="#FFCCB3"/>
<path d="M537.39 922.045C537.39 922.045 592.392 841.272 594.935 834.412C597.408 827.713 610.4 843.833 610.4 843.833L567.832 936.707L537.39 922.045Z" fill="#FFCCB3"/>
<path d="M461.67 809.404L468.283 855.503C468.283 855.503 470.018 861.621 462.315 862.548C454.611 863.474 438.187 861.404 432.32 855.152C426.454 848.901 428.506 845.804 428.506 845.804L440.947 795.769L461.67 809.404Z" fill="#FFCCB3"/>
<path d="M462.59 815.369L446.417 809.657L466.454 839.354L462.59 815.369Z" fill="#FF967C"/>
<path d="M479.969 752.464C479.969 752.464 493.845 785.067 486.613 807.412C481.897 821.984 471.627 824.604 448.105 813.684C426.539 803.671 420.937 796.095 420.937 796.095L417.756 759.752C417.756 759.752 465.878 723.404 479.969 752.464Z" fill="#FFCCB3"/>
<path d="M468.399 842.248C468.399 842.248 486.174 847.187 489.781 850.073C493.388 852.959 496.012 876.415 501.343 888.001C509.236 905.154 514.347 914.279 501.086 933.128C493.089 944.498 495.808 973.401 495.808 973.401H398.438C401.388 916.568 388.333 849.572 388.333 849.572L432.278 839.446C442.187 841.154 468.399 842.248 468.399 842.248Z" fill="#1C85E8"/>
<path d="M471.508 843.165C471.508 843.165 470.193 834.232 465.992 833.603C461.792 832.974 436.122 829.113 432.13 830.794C428.137 832.475 423.304 843.165 423.304 843.165C423.304 843.165 431.499 863.155 443.267 864.206C455.034 865.256 475.289 861.629 473.147 854.197C471.005 846.764 471.508 843.165 471.508 843.165Z" fill="#1C85E8"/>
<path d="M479.502 845.881C479.502 845.881 476.662 863.122 461.241 862.85C445.819 862.578 423.411 839.446 423.411 839.446" stroke="white" stroke-width="0.684434" stroke-miterlimit="10"/>
<path d="M409.632 870.873C409.632 870.873 424.956 881.004 420.442 891.227C415.367 902.721 415.411 932.324 429.977 934.18C455.968 937.49 444.675 942.035 432.658 944.939C420.641 947.843 425.56 947.846 425.56 960.296C425.56 969.157 397.714 976.84 398.438 969.68C403.28 921.779 383.153 891.447 409.632 870.873Z" fill="#0E66AF"/>
<path d="M481.206 800.431L468.298 801.069C468.344 801.228 468.415 801.445 468.515 801.701C468.735 802.256 469.099 802.987 469.677 803.694C470.822 805.097 472.822 806.431 476.278 806.081C478.459 805.663 479.7 804.196 480.403 802.807C480.754 802.111 480.968 801.44 481.093 800.943C481.145 800.739 481.181 800.565 481.206 800.431Z" fill="#E56441" stroke="#E56441" stroke-width="0.504339"/>
<path d="M480.354 778.998C479.815 776.999 480.477 775.081 481.834 774.715C483.191 774.349 484.728 775.673 485.267 777.673C485.807 779.673 485.144 781.59 483.788 781.956C482.431 782.323 480.893 780.998 480.354 778.998Z" fill="#080B09"/>
<path d="M460.386 784.692C459.846 782.693 460.509 780.775 461.866 780.409C463.223 780.043 464.76 781.367 465.299 783.367C465.839 785.367 465.176 787.284 463.819 787.65C462.462 788.016 460.925 786.692 460.386 784.692Z" fill="#080B09"/>
<path d="M485.404 768.67L475.253 771.587C475.076 771.623 474.893 771.592 474.736 771.503C474.58 771.413 474.461 771.27 474.403 771.099C474.357 770.779 474.375 770.453 474.458 770.14C474.542 769.827 474.687 769.534 474.887 769.279C475.086 769.024 475.335 768.812 475.619 768.657C475.902 768.501 476.215 768.404 476.536 768.372L485.255 767.454C485.924 767.274 486.239 768.444 485.404 768.67Z" fill="#080B09"/>
<path d="M450.699 777.347L464.465 774.53C464.341 774.12 464.131 773.742 463.852 773.417C463.572 773.094 463.227 772.832 462.84 772.649C462.453 772.466 462.032 772.366 461.604 772.356C461.176 772.346 460.75 772.426 460.355 772.59L450.307 776.556C449.973 776.647 450.198 777.482 450.699 777.347Z" fill="#080B09"/>
<path d="M474.215 779.57L480.745 788.363L478.286 791.839" stroke="#E56441" stroke-width="1.12912" stroke-linecap="round"/>
<path d="M462.073 875.499C460.809 875.499 459.784 872.667 459.784 869.175C459.784 865.681 460.809 862.85 462.073 862.85C463.337 862.85 464.362 865.681 464.362 869.175C464.362 872.667 463.337 875.499 462.073 875.499Z" fill="white"/>
<path d="M356.56 962.514L390.505 965.295L396.299 940.695L403.28 921.778L367.557 917.503L363.091 938.674L356.56 962.514Z" fill="#FFCCB3"/>
<path d="M366.351 923.22L365.099 929.157L400.278 929.914L402.592 923.643L366.351 923.22Z" fill="#FF967C"/>
<path d="M394.174 895.81C381.202 895.81 370.686 885.294 370.686 872.323C370.686 859.35 381.202 848.835 394.174 848.835C407.145 848.835 417.661 859.35 417.661 872.323C417.661 885.294 407.145 895.81 394.174 895.81Z" fill="#1C85E8"/>
<path d="M398.704 861.28C398.704 861.28 373.95 857.217 371.848 865.121C367.307 881.016 361.725 906.533 360.367 918.736C360.321 919.255 360.378 919.778 360.535 920.275C360.692 920.771 360.946 921.232 361.282 921.63C361.618 922.028 362.029 922.355 362.493 922.594C362.956 922.832 363.461 922.976 363.98 923.018L401.261 926.2C402.704 926.334 404.143 925.911 405.283 925.016C406.424 924.122 407.178 922.826 407.392 921.393L417.488 875.677L398.704 861.28Z" fill="#1C85E8"/>
<path d="M471.318 749.364C471.318 749.364 470.44 765.2 457.024 772.875C457.024 772.875 453.101 785.02 438.46 787.877C438.46 787.877 439.324 776.713 432.346 776.831C420.496 777.032 426.325 795.007 434.337 797.956C439.781 799.96 443.061 807.074 434.978 823.285C416.42 816.665 403.369 789.934 408.486 760.276C412.583 736.526 442.027 728.77 448.077 729.543C448.077 729.543 473.199 720.865 486.428 744.667C497.736 765.016 487.175 777.16 487.175 777.16L481.148 759.05C481.148 759.05 478.631 760.817 471.318 749.364Z" fill="#080B09"/>
<path d="M356.435 1021.2H446.341C448.08 1021.2 449.759 1020.56 451.063 1019.41C452.367 1018.26 453.206 1016.67 453.422 1014.95L461.72 948.719C461.846 947.715 461.757 946.695 461.459 945.728C461.161 944.761 460.66 943.868 459.99 943.11C459.321 942.351 458.497 941.743 457.575 941.327C456.652 940.91 455.652 940.695 454.639 940.695H348.137C347.124 940.695 346.124 940.91 345.201 941.327C344.279 941.743 343.455 942.351 342.786 943.11C342.116 943.868 341.615 944.761 341.317 945.728C341.019 946.695 340.93 947.715 341.055 948.719L349.354 1014.95C349.57 1016.67 350.409 1018.26 351.712 1019.41C353.017 1020.56 354.695 1021.2 356.435 1021.2Z" fill="url(#paint2_linear_753_862)"/>
<path d="M401.177 986.022C397.692 986.022 394.866 983.197 394.866 979.712C394.866 976.226 397.692 973.401 401.177 973.401C404.662 973.401 407.487 976.226 407.487 979.712C407.487 983.197 404.662 986.022 401.177 986.022Z" fill="white"/>
<path d="M608.062 849.14L613.48 838.746C613.48 838.746 632.637 827.788 634.857 823.826C637.078 819.863 637.95 808.551 634.019 805.655C634.019 805.655 649.304 794.175 646.702 791.849C644.108 789.354 614.08 811.662 614.08 811.662C614.08 811.662 617.735 795.227 612.18 794.457C610.675 800.827 608.097 806.894 604.555 812.399C598.706 821.443 597.986 829.543 597.986 829.543L591.092 842.774L608.062 849.14Z" fill="#FFCCB3"/>
<path d="M632.99 805.945L623.733 811.778" stroke="#FF967C" stroke-width="1.4484" stroke-linecap="round" stroke-linejoin="round"/>
<path d="M634.369 812.619L626.513 817.502" stroke="#FF967C" stroke-width="1.4484" stroke-linecap="round" stroke-linejoin="round"/>
<path d="M632.843 819.833L627.603 823.145" stroke="#FF967C" stroke-width="1.4484" stroke-linecap="round" stroke-linejoin="round"/>
<path d="M374.742 1018.5C374.742 1018.5 369.99 1018.89 370.706 1021.29C371.422 1023.69 375.664 1022.58 379.538 1024.98C383.411 1027.37 398.726 1029.09 406.375 1027.81C414.025 1026.54 416.15 1018.5 416.15 1018.5C416.15 1018.5 417.429 1010.87 403.917 1010.08C390.404 1009.3 384.116 1013.64 381.766 1018.34L374.742 1018.5Z" fill="#FFCCB3"/>
<path d="M410.405 1011.27L407.487 1019.12" stroke="#E56441" stroke-width="1.12912" stroke-linecap="round"/>
<path d="M402.847 1009.99L399.929 1017.84" stroke="#E56441" stroke-width="1.12912" stroke-linecap="round"/>
<path d="M394.866 1010.66L391.948 1018.51" stroke="#E56441" stroke-width="1.12912" stroke-linecap="round"/>
<g opacity="0.7">
<path d="M1505.7 296.486C1516.51 304.377 1545.02 324.969 1581.24 321.699C1581.59 321.658 1581.95 321.692 1582.28 321.801C1582.62 321.908 1582.93 322.088 1583.19 322.325C1583.46 322.563 1583.66 322.854 1583.8 323.178C1583.94 323.503 1584.01 323.853 1584 324.206V381.239C1583.98 381.994 1583.7 382.719 1583.21 383.293C1582.71 383.867 1582.04 384.255 1581.29 384.39C1570.4 386.212 1525.12 385.312 1501.76 362.072C1501.51 361.831 1501.32 361.545 1501.19 361.23C1501.06 360.915 1501 360.578 1501 360.237V299.2C1501 296.782 1503.85 295.135 1505.7 296.486Z" fill="#96BAFD"/>
</g>
<path d="M1523.3 354.191C1517.26 352.076 1512.37 345.501 1512.37 339.503C1512.37 333.507 1517.26 330.359 1523.3 332.474V325.504C1513.55 322.088 1505.65 327.173 1505.65 336.861C1505.65 346.549 1513.55 357.172 1523.3 360.588C1532.63 363.859 1540.27 359.33 1540.9 350.431L1534.18 348.076C1533.7 353.471 1529.01 356.195 1523.3 354.191Z" fill="white"/>
<path d="M1525.54 324.062V331.032C1531.57 333.147 1536.46 339.722 1536.46 345.719C1536.46 346.033 1536.44 346.337 1536.42 346.634L1543.14 348.989C1543.17 348.597 1543.18 348.199 1543.18 347.79C1543.18 338.102 1535.28 327.479 1525.54 324.062Z" fill="#1C85E8"/>
<path d="M1512.37 339.504L1505.65 337.147" stroke="white" stroke-width="0.925451" stroke-miterlimit="10"/>
<path d="M1551.6 340.5L1564.08 342.857" stroke="white" stroke-width="3.95153" stroke-miterlimit="10" stroke-linecap="round"/>
<path opacity="0.4" d="M1551.6 359.932L1564.08 362.289" stroke="white" stroke-width="3.95153" stroke-miterlimit="10" stroke-linecap="round"/>
<path d="M1551.6 350.414L1569.52 353.8" stroke="white" stroke-width="3.95153" stroke-miterlimit="10" stroke-linecap="round"/>
</g>
<defs>
<linearGradient id="paint0_linear_753_862" x1="448.438" y1="169" x2="461.612" y2="386.129" gradientUnits="userSpaceOnUse">
<stop stop-color="white"/>
<stop offset="1" stop-color="#94B9FF"/>
</linearGradient>
<linearGradient id="paint1_linear_753_862" x1="410.711" y1="219.129" x2="413.453" y2="244.426" gradientUnits="userSpaceOnUse">
<stop stop-color="white"/>
<stop offset="1" stop-color="#94B9FF"/>
</linearGradient>
<linearGradient id="paint2_linear_753_862" x1="404.395" y1="940.504" x2="391.98" y2="1112.3" gradientUnits="userSpaceOnUse">
<stop stop-color="white"/>
<stop offset="1" stop-color="#94B9FF"/>
</linearGradient>
<clipPath id="clip0_753_862">
<rect width="1920" height="1080" fill="white"/>
</clipPath>
</defs>
</svg>
