<svg width="694" height="479" viewBox="0 0 694 479" fill="none" xmlns="http://www.w3.org/2000/svg">
<g filter="url(#filter0_d_753_1940)">
<path d="M633.167 15H54.3591C33.1722 15 15.9971 32.0904 15.9971 53.1728V417.827C15.9971 438.91 33.1722 456 54.3591 456H633.167C654.353 456 671.529 438.91 671.529 417.827V53.1728C671.529 32.0904 654.353 15 633.167 15Z" fill="url(#paint0_linear_753_1940)"/>
<path d="M58.8678 15H627.601C639.112 15 650.15 19.5501 658.289 27.6487C666.427 35.7473 671 46.7312 671 58.185H15.4688C15.4688 46.7312 20.0415 35.7473 28.1802 27.6487C36.3189 19.5501 47.3581 15 58.8678 15Z" fill="#5CA4E6"/>
<path d="M55.128 46.359C59.2239 46.359 62.5436 43.0548 62.5436 38.98C62.5436 34.9042 59.2239 31.6001 55.128 31.6001C51.032 31.6001 47.7124 34.9042 47.7124 38.98C47.7124 43.0548 51.032 46.359 55.128 46.359Z" fill="white"/>
<path d="M80.2593 46.359C84.3553 46.359 87.6758 43.0548 87.6758 38.98C87.6758 34.9042 84.3553 31.6001 80.2593 31.6001C76.1643 31.6001 72.8438 34.9042 72.8438 38.98C72.8438 43.0548 76.1643 46.359 80.2593 46.359Z" fill="white"/>
<path d="M104.675 46.359C108.771 46.359 112.091 43.0548 112.091 38.98C112.091 34.9042 108.771 31.6001 104.675 31.6001C100.58 31.6001 97.2593 34.9042 97.2593 38.98C97.2593 43.0548 100.58 46.359 104.675 46.359Z" fill="white"/>
<path d="M276.128 191.025H301.94V200.925H311.059V191.025H318.045V183.179H311.059V147.835H299.145L276.128 183.399V191.025ZM285.909 183.179V182.812L301.499 158.687H302.087V183.179H285.909Z" fill="#A9CEFF"/>
<path d="M345.327 201.658C358.123 201.658 365.771 191.795 365.771 174.38C365.771 157.074 358.086 147.102 345.327 147.102C332.568 147.102 324.847 157.074 324.884 174.38C324.847 191.758 332.495 201.658 345.327 201.658ZM334.517 174.38C334.554 161.731 338.672 155.058 345.327 155.021C351.982 155.058 356.1 161.731 356.137 174.38C356.137 187.139 351.982 193.628 345.327 193.665C338.635 193.628 334.517 187.139 334.517 174.38Z" fill="#A9CEFF"/>
<path d="M372.83 191.025H398.642V200.925H407.761V191.025H414.747V183.179H407.761V147.835H395.847L372.83 183.399V191.025ZM382.611 183.179V182.812L398.201 158.687H398.789V183.179H382.611Z" fill="#A9CEFF"/>
<path d="M214.577 237.226H205.091V273.523H204.576L179.5 237.226H170.822V290.315H180.382V254.018H180.823L206.047 290.315H214.577V237.226Z" fill="#A9CEFF"/>
<path d="M241.418 291.122C253.111 291.122 260.575 282.872 260.538 270.59C260.575 258.197 253.111 249.985 241.418 249.985C229.763 249.985 222.299 258.197 222.299 270.59C222.299 282.872 229.763 291.122 241.418 291.122ZM231.785 270.517C231.785 263.22 234.984 257.354 241.492 257.391C247.89 257.354 251.089 263.22 251.052 270.517C251.089 277.813 247.89 283.642 241.492 283.642C234.984 283.642 231.785 277.813 231.785 270.517Z" fill="#A9CEFF"/>
<path d="M287.747 250.498H279.879V240.965H270.539V250.498H264.803V257.684H270.539V279.903C270.466 287.382 275.908 290.865 282.967 290.829C285.357 290.865 287.159 290.645 288.262 290.462V282.836C287.085 282.909 285.247 283.019 284.144 282.982C281.791 282.946 279.879 282.176 279.879 278.363V257.684H287.747V250.498Z" fill="#A9CEFF"/>
<path d="M313.265 290.315H322.825V267.73H345.033V259.737H322.825V245.218H347.386V237.226H313.265V290.315Z" fill="#A9CEFF"/>
<path d="M369.521 291.122C381.213 291.122 388.678 282.872 388.641 270.59C388.678 258.197 381.213 249.985 369.521 249.985C357.865 249.985 350.401 258.197 350.401 270.59C350.401 282.872 357.865 291.122 369.521 291.122ZM359.888 270.517C359.888 263.22 363.086 257.354 369.595 257.391C375.992 257.354 379.191 263.22 379.154 270.517C379.191 277.813 375.992 283.642 369.595 283.642C363.086 283.642 359.888 277.813 359.888 270.517Z" fill="#A9CEFF"/>
<path d="M421.439 273.596C421.439 279.683 417.026 282.689 412.908 282.689C408.349 282.689 405.334 279.463 405.334 274.403V250.498H395.921V275.87C395.958 285.402 401.4 290.829 409.305 290.829C415.261 290.829 419.453 287.712 421.292 283.276H421.733V290.315H430.778V250.498H421.439V273.596Z" fill="#A9CEFF"/>
<path d="M449.162 266.997C449.162 261.204 452.655 257.867 457.619 257.904C462.509 257.867 465.414 261.057 465.414 266.41V290.315H474.753V264.944C474.79 255.411 469.348 249.985 461.075 249.985C455.119 249.985 451.037 252.808 449.236 257.244H448.721V250.498H439.749V290.315H449.162V266.997Z" fill="#A9CEFF"/>
<path d="M498.58 291.049C505.492 291.012 508.544 286.942 510.051 284.009H510.566V290.315H519.758V237.226H510.419V257.024H510.051C508.617 254.201 505.676 249.985 498.653 249.985C489.387 249.985 482.107 257.171 482.107 270.443C482.107 283.532 489.204 291.012 498.58 291.049ZM491.667 270.37C491.667 262.964 494.903 257.647 501.153 257.611C507.257 257.647 510.64 262.634 510.64 270.37C510.64 278.143 507.22 283.349 501.153 283.349C494.976 283.349 491.667 277.886 491.667 270.37Z" fill="#A9CEFF"/>
<path d="M271.143 184.072H296.955V193.971H306.074V184.072H313.06V176.226H306.074V140.882H294.161L271.143 176.446V184.072ZM280.924 176.226V175.859L296.514 151.734H297.102V176.226H280.924Z" fill="#1479FF"/>
<path d="M340.342 194.705C353.138 194.705 360.786 184.842 360.786 167.427C360.786 150.121 353.101 140.148 340.342 140.148C327.583 140.148 319.862 150.121 319.899 167.427C319.862 184.805 327.51 194.705 340.342 194.705ZM329.532 167.427C329.569 154.777 333.687 148.105 340.342 148.068C346.997 148.105 351.116 154.777 351.152 167.427C351.152 180.186 346.997 186.675 340.342 186.712C333.65 186.675 329.532 180.186 329.532 167.427Z" fill="#1479FF"/>
<path d="M367.845 184.072H393.657V193.971H402.776V184.072H409.762V176.226H402.776V140.882H390.863L367.845 176.446V184.072ZM377.626 176.226V175.859L393.216 151.734H393.804V176.226H377.626Z" fill="#1479FF"/>
<path d="M209.592 230.272H200.106V266.57H199.591L174.515 230.272H165.837V283.362H175.397V247.065H175.839L201.062 283.362H209.592V230.272Z" fill="#1479FF"/>
<path d="M236.434 284.169C248.126 284.169 255.59 275.919 255.553 263.637C255.59 251.244 248.126 243.032 236.434 243.032C224.778 243.032 217.314 251.244 217.314 263.637C217.314 275.919 224.778 284.169 236.434 284.169ZM226.8 263.563C226.8 256.267 229.999 250.401 236.507 250.438C242.905 250.401 246.104 256.267 246.067 263.563C246.104 270.86 242.905 276.689 236.507 276.689C229.999 276.689 226.8 270.86 226.8 263.563Z" fill="#1479FF"/>
<path d="M282.762 243.545H274.894V234.012H265.554V243.545H259.819V250.731H265.554V272.949C265.481 280.429 270.923 283.912 277.982 283.875C280.372 283.912 282.174 283.692 283.277 283.509V275.883C282.1 275.956 280.262 276.066 279.159 276.029C276.806 275.993 274.894 275.223 274.894 271.41V250.731H282.762V243.545Z" fill="#1479FF"/>
<path d="M308.28 283.362H317.84V260.777H340.048V252.784H317.84V238.265H342.401V230.272H308.28V283.362Z" fill="#1479FF"/>
<path d="M364.536 284.169C376.229 284.169 383.693 275.919 383.656 263.637C383.693 251.244 376.229 243.032 364.536 243.032C352.88 243.032 345.416 251.244 345.416 263.637C345.416 275.919 352.88 284.169 364.536 284.169ZM354.903 263.563C354.903 256.267 358.102 250.401 364.61 250.438C371.007 250.401 374.206 256.267 374.17 263.563C374.206 270.86 371.007 276.689 364.61 276.689C358.102 276.689 354.903 270.86 354.903 263.563Z" fill="#1479FF"/>
<path d="M416.454 266.643C416.454 272.729 412.041 275.736 407.923 275.736C403.364 275.736 400.349 272.51 400.349 267.45V243.545H390.936V268.916C390.973 278.449 396.415 283.875 404.32 283.875C410.277 283.875 414.468 280.759 416.307 276.323H416.748V283.362H425.793V243.545H416.454V266.643Z" fill="#1479FF"/>
<path d="M444.177 260.044C444.177 254.251 447.67 250.914 452.634 250.951C457.525 250.914 460.429 254.104 460.429 259.457V283.362H469.769V257.991C469.805 248.458 464.363 243.032 456.091 243.032C450.134 243.032 446.053 245.855 444.251 250.291H443.736V243.545H434.765V283.362H444.177V260.044Z" fill="#1479FF"/>
<path d="M493.595 284.095C500.507 284.059 503.559 279.989 505.067 277.056H505.581V283.362H514.774V230.272H505.434V250.071H505.067C503.633 247.248 500.691 243.032 493.668 243.032C484.402 243.032 477.122 250.218 477.122 263.49C477.122 276.579 484.219 284.059 493.595 284.095ZM486.682 263.417C486.682 256.011 489.918 250.694 496.169 250.658C502.272 250.694 505.655 255.681 505.655 263.417C505.655 271.19 502.235 276.396 496.169 276.396C489.991 276.396 486.682 270.933 486.682 263.417Z" fill="#1479FF"/>
<path fill-rule="evenodd" clip-rule="evenodd" d="M342.003 340.98C326.144 340.98 313.288 353.788 313.288 369.588C313.288 385.387 326.144 398.196 342.003 398.196C357.862 398.196 370.718 385.387 370.718 369.588C370.718 353.788 357.862 340.98 342.003 340.98ZM308.106 369.588C308.106 350.937 323.282 335.817 342.003 335.817C360.724 335.817 375.9 350.937 375.9 369.588C375.9 388.238 360.724 403.358 342.003 403.358C323.282 403.358 308.106 388.238 308.106 369.588ZM328.455 360.231C328.455 357.944 330.316 356.09 332.611 356.09C334.907 356.09 336.767 357.944 336.767 360.231C336.767 362.518 334.907 364.372 332.611 364.372C330.316 364.372 328.455 362.518 328.455 360.231ZM347.239 360.231C347.239 357.944 349.099 356.09 351.395 356.09C353.69 356.09 355.551 357.944 355.551 360.231C355.551 362.518 353.69 364.372 351.395 364.372C349.099 364.372 347.239 362.518 347.239 360.231ZM331.283 376.857C333.722 375.09 337.376 373.244 342.003 373.244C346.63 373.244 350.285 375.09 352.723 376.857C353.947 377.744 354.894 378.631 355.54 379.303C355.864 379.64 356.116 379.926 356.293 380.136C356.381 380.241 356.451 380.327 356.502 380.391C356.528 380.423 356.548 380.45 356.564 380.47L356.585 380.497L356.592 380.507L356.597 380.513C356.597 380.514 356.598 380.515 354.717 381.92L356.598 380.515C357.457 381.655 357.225 383.273 356.08 384.128C354.938 384.981 353.319 384.754 352.459 383.62C352.457 383.618 352.455 383.615 352.453 383.612L354.525 382.063C352.453 383.612 352.453 383.613 352.454 383.614L352.455 383.615L352.457 383.617L352.439 383.595C352.418 383.568 352.379 383.52 352.324 383.455C352.213 383.323 352.037 383.122 351.799 382.875C351.32 382.377 350.603 381.704 349.675 381.032C347.809 379.68 345.202 378.407 342.003 378.407C338.804 378.407 336.197 379.68 334.331 381.032C333.403 381.704 332.686 382.377 332.207 382.875C331.969 383.122 331.793 383.323 331.682 383.455C331.627 383.52 331.588 383.568 331.567 383.595L331.549 383.617L331.552 383.614C330.693 384.753 329.07 384.983 327.926 384.128C326.782 383.273 326.55 381.655 327.408 380.515L329.321 381.944C327.408 380.515 327.409 380.514 327.409 380.513L327.411 380.511L327.414 380.507L327.421 380.497L327.442 380.47C327.458 380.45 327.479 380.423 327.504 380.391C327.555 380.327 327.625 380.241 327.713 380.136C327.89 379.926 328.142 379.64 328.466 379.303C329.113 378.631 330.059 377.744 331.283 376.857ZM331.552 383.614C331.553 383.613 331.553 383.613 331.553 383.612L329.481 382.063C331.553 383.612 331.553 383.613 331.552 383.614Z" fill="#A9CEFF"/>
<path fill-rule="evenodd" clip-rule="evenodd" d="M336.52 335.096C320.428 335.096 307.382 348.093 307.382 364.125C307.382 380.157 320.428 393.153 336.52 393.153C352.612 393.153 365.657 380.157 365.657 364.125C365.657 348.093 352.612 335.096 336.52 335.096ZM302.125 364.125C302.125 345.2 317.524 329.858 336.52 329.858C355.516 329.858 370.915 345.2 370.915 364.125C370.915 383.05 355.516 398.392 336.52 398.392C317.524 398.392 302.125 383.05 302.125 364.125ZM322.773 354.63C322.773 352.31 324.661 350.429 326.99 350.429C329.319 350.429 331.207 352.31 331.207 354.63C331.207 356.951 329.319 358.832 326.99 358.832C324.661 358.832 322.773 356.951 322.773 354.63ZM341.832 354.63C341.832 352.31 343.72 350.429 346.05 350.429C348.379 350.429 350.267 352.31 350.267 354.63C350.267 356.951 348.379 358.832 346.05 358.832C343.72 358.832 341.832 356.951 341.832 354.63ZM325.642 371.501C328.116 369.708 331.825 367.835 336.52 367.835C341.215 367.835 344.923 369.708 347.397 371.501C348.639 372.401 349.6 373.301 350.256 373.983C350.585 374.325 350.84 374.615 351.02 374.828C351.109 374.935 351.18 375.022 351.232 375.087C351.258 375.12 351.279 375.147 351.295 375.168L351.316 375.195L351.323 375.205L351.328 375.211C351.329 375.212 351.329 375.212 349.421 376.639L351.329 375.212C352.2 376.37 351.965 378.011 350.803 378.879C349.645 379.745 348.002 379.514 347.129 378.364C347.127 378.361 347.125 378.358 347.123 378.355L349.226 376.784C347.123 378.355 347.124 378.356 347.124 378.357L347.125 378.358L347.127 378.361L347.109 378.339C347.087 378.311 347.048 378.262 346.992 378.196C346.88 378.062 346.701 377.858 346.459 377.607C345.974 377.102 345.246 376.42 344.305 375.737C342.411 374.365 339.766 373.073 336.52 373.073C333.273 373.073 330.628 374.365 328.735 375.737C327.793 376.42 327.065 377.102 326.58 377.607C326.338 377.858 326.159 378.062 326.047 378.196C325.991 378.262 325.952 378.311 325.93 378.339L325.912 378.361L325.915 378.357C325.044 379.513 323.397 379.747 322.236 378.879C321.074 378.011 320.839 376.37 321.71 375.212L323.651 376.663C321.71 375.212 321.711 375.212 321.711 375.211L321.713 375.209L321.716 375.205L321.724 375.195L321.744 375.168C321.761 375.147 321.782 375.12 321.807 375.087C321.859 375.022 321.93 374.935 322.02 374.828C322.199 374.615 322.455 374.325 322.784 373.983C323.44 373.301 324.4 372.401 325.642 371.501ZM325.915 378.357C325.916 378.356 325.916 378.356 325.916 378.355L323.813 376.784C325.916 378.355 325.916 378.356 325.915 378.357Z" fill="#1479FF"/>
</g>
<defs>
<filter id="filter0_d_753_1940" x="0.189186" y="0.189186" width="693.555" height="478.027" filterUnits="userSpaceOnUse" color-interpolation-filters="sRGB">
<feFlood flood-opacity="0" result="BackgroundImageFix"/>
<feColorMatrix in="SourceAlpha" type="matrix" values="0 0 0 0 0 0 0 0 0 0 0 0 0 0 0 0 0 0 127 0" result="hardAlpha"/>
<feOffset dx="3.7027" dy="3.7027"/>
<feGaussianBlur stdDeviation="9.25676"/>
<feComposite in2="hardAlpha" operator="out"/>
<feColorMatrix type="matrix" values="0 0 0 0 0 0 0 0 0 0 0 0 0 0 0 0 0 0 0.1 0"/>
<feBlend mode="normal" in2="BackgroundImageFix" result="effect1_dropShadow_753_1940"/>
<feBlend mode="normal" in="SourceGraphic" in2="effect1_dropShadow_753_1940" result="shape"/>
</filter>
<linearGradient id="paint0_linear_753_1940" x1="327.443" y1="13.9515" x2="396.076" y2="954.948" gradientUnits="userSpaceOnUse">
<stop stop-color="white"/>
<stop offset="1" stop-color="#94B9FF"/>
</linearGradient>
</defs>
</svg>
