<svg width="716" height="710" viewBox="0 0 716 710" fill="none" xmlns="http://www.w3.org/2000/svg">
<mask id="mask0_661_1001" style="mask-type:luminance" maskUnits="userSpaceOnUse" x="0" y="0" width="716" height="710">
<path d="M715.53 0H0V709.997H715.53V0Z" fill="white"/>
</mask>
<g mask="url(#mask0_661_1001)">
<path d="M370.455 633.328C538.479 633.328 674.686 497.118 674.686 329.092C674.686 161.068 538.479 24.8574 370.455 24.8574C202.43 24.8574 66.2191 161.068 66.2191 329.092C66.2191 497.118 202.43 633.328 370.455 633.328Z" stroke="#D1E8F7" stroke-width="1.91649" stroke-miterlimit="10"/>
<path d="M122.953 161.17C128.871 161.17 133.669 156.373 133.669 150.454C133.669 144.536 128.871 139.739 122.953 139.739C117.036 139.739 112.238 144.536 112.238 150.454C112.238 156.373 117.036 161.17 122.953 161.17Z" fill="#FEBB94"/>
<path d="M674.687 351.395C680.607 351.395 685.409 346.598 685.409 340.679C685.409 334.761 680.607 329.963 674.687 329.963C668.774 329.963 663.973 334.761 663.973 340.679C663.973 346.598 668.774 351.395 674.687 351.395Z" fill="#5661AE"/>
<path d="M382.934 644.043C388.851 644.043 393.649 639.245 393.649 633.328C393.649 627.41 388.851 622.612 382.934 622.612C377.015 622.612 372.218 627.41 372.218 633.328C372.218 639.245 377.015 644.043 382.934 644.043Z" fill="#1C85E8"/>
<path d="M377.503 558.048C502.845 558.048 604.454 456.438 604.454 331.096C604.454 205.754 502.845 104.145 377.503 104.145C252.16 104.145 150.551 205.754 150.551 331.096C150.551 456.438 252.16 558.048 377.503 558.048Z" stroke="#D1E8F7" stroke-width="1.42966" stroke-miterlimit="10"/>
<path d="M600.564 384.806C604.979 384.806 608.557 381.227 608.557 376.813C608.557 372.398 604.979 368.819 600.564 368.819C596.149 368.819 592.57 372.398 592.57 376.813C592.57 381.227 596.149 384.806 600.564 384.806Z" fill="#FEBB94"/>
<path d="M167.009 424.38C171.424 424.38 175.003 420.801 175.003 416.386C175.003 411.971 171.424 408.393 167.009 408.393C162.595 408.393 159.016 411.971 159.016 416.386C159.016 420.801 162.595 424.38 167.009 424.38Z" fill="#5661AE"/>
<path d="M275.844 135.966C280.259 135.966 283.838 132.387 283.838 127.972C283.838 123.558 280.259 119.979 275.844 119.979C271.429 119.979 267.851 123.558 267.851 127.972C267.851 132.387 271.429 135.966 275.844 135.966Z" fill="#1C85E8"/>
<path d="M495.623 582.415H233.529C222.158 582.415 213.827 573.197 214.92 561.826L259.662 96.3921C260.754 85.0212 270.858 75.8032 282.229 75.8032H544.322C555.693 75.8032 564.025 85.0212 562.931 96.3921L518.19 561.826C517.097 573.197 506.993 582.415 495.623 582.415Z" fill="#1C85E8"/>
<path d="M477.151 582.415H215.058C203.688 582.415 195.356 573.197 196.449 561.826L241.19 96.3921C242.283 85.0212 252.387 75.8032 263.758 75.8032H525.851C537.221 75.8032 545.553 85.0212 544.46 96.3921L499.719 561.826C498.626 573.197 488.522 582.415 477.151 582.415Z" fill="url(#paint0_linear_661_1001)"/>
<path d="M467.219 566.942H227.966C217.428 566.942 209.706 558.4 210.719 547.862L252.775 110.356C253.789 99.8183 263.152 91.2764 273.69 91.2764H512.943C523.481 91.2764 531.203 99.8183 530.19 110.356L488.134 547.862C487.12 558.4 477.757 566.942 467.219 566.942Z" fill="white"/>
<path d="M486.406 290.305L229.748 290.077C228.699 290.105 227.657 289.91 226.69 289.503C225.724 289.097 224.854 288.489 224.142 287.719C223.428 286.951 222.888 286.038 222.555 285.044C222.223 284.049 222.107 282.995 222.214 281.951L236.051 128.307C236.301 126.09 237.355 124.041 239.012 122.548C240.669 121.053 242.815 120.217 245.046 120.196L501.704 120.424C502.752 120.396 503.795 120.592 504.762 120.998C505.728 121.405 506.598 122.012 507.31 122.782C508.023 123.551 508.564 124.463 508.896 125.458C509.229 126.452 509.345 127.507 509.237 128.55L495.4 282.195C495.15 284.411 494.097 286.46 492.439 287.954C490.783 289.448 488.637 290.285 486.406 290.305Z" fill="url(#paint1_linear_661_1001)"/>
<path d="M478.324 455.858H369.845C369.045 455.874 368.25 455.717 367.516 455.4C366.781 455.083 366.124 454.611 365.587 454.017C365.051 453.423 364.648 452.722 364.406 451.958C364.163 451.196 364.089 450.39 364.185 449.596L377.356 312.572C377.546 310.873 378.347 309.301 379.61 308.149C380.873 306.997 382.511 306.344 384.22 306.31H492.701C493.5 306.294 494.294 306.45 495.029 306.768C495.764 307.086 496.421 307.557 496.958 308.151C497.495 308.745 497.898 309.446 498.14 310.209C498.381 310.972 498.457 311.778 498.36 312.572L485.188 449.596C484.998 451.294 484.198 452.866 482.935 454.018C481.672 455.17 480.034 455.824 478.324 455.858Z" fill="url(#paint2_linear_661_1001)"/>
<path d="M452.462 380.268C464.697 368.609 466.028 350.148 455.436 339.036C444.844 327.923 426.341 328.366 414.108 340.025C401.874 351.686 400.542 370.146 411.135 381.259C421.726 392.372 440.229 391.929 452.462 380.268Z" stroke="#EF6A77" stroke-width="11.6898" stroke-miterlimit="10"/>
<path d="M419.533 387.1C409.385 382.718 402.952 372.301 404.121 360.147C405.669 344.039 419.981 330.982 436.089 330.982" stroke="white" stroke-width="11.6898" stroke-miterlimit="10" stroke-linecap="round"/>
<path d="M417.125 412.171H439.443" stroke="white" stroke-width="5.98374" stroke-miterlimit="10" stroke-linecap="round"/>
<path d="M414.695 437.447H437.013" stroke="white" stroke-width="5.98374" stroke-miterlimit="10" stroke-linecap="round"/>
<path opacity="0.4" d="M404.021 424.666H450.144" stroke="white" stroke-width="5.98374" stroke-miterlimit="10" stroke-linecap="round"/>
<path d="M345.66 455.858H237.181C236.381 455.874 235.586 455.717 234.852 455.4C234.118 455.083 233.46 454.611 232.923 454.017C232.387 453.423 231.984 452.722 231.742 451.958C231.499 451.196 231.425 450.39 231.521 449.596L244.692 312.572C244.882 310.873 245.683 309.301 246.946 308.149C248.209 306.997 249.847 306.344 251.556 306.31H360.036C360.836 306.294 361.63 306.45 362.365 306.768C363.1 307.086 363.757 307.557 364.294 308.151C364.831 308.745 365.234 309.446 365.476 310.209C365.717 310.972 365.793 311.778 365.696 312.572L352.524 449.596C352.334 451.294 351.534 452.866 350.271 454.018C349.008 455.17 347.369 455.824 345.66 455.858Z" fill="#FEBB94"/>
<path d="M319.799 380.268C332.032 368.609 333.363 350.148 322.772 339.036C312.181 327.923 293.677 328.366 281.443 340.025C269.21 351.686 267.879 370.146 278.47 381.259C289.061 392.372 307.565 391.929 319.799 380.268Z" stroke="#EF6A77" stroke-width="11.6898" stroke-miterlimit="10"/>
<path d="M329.786 360.147C328.238 376.254 313.925 389.311 297.818 389.311C281.71 389.311 269.908 376.254 271.457 360.147C273.005 344.039 287.317 330.982 303.425 330.982" stroke="white" stroke-width="11.6898" stroke-miterlimit="10" stroke-linecap="round"/>
<path d="M284.461 412.171H306.779" stroke="white" stroke-width="5.98374" stroke-miterlimit="10" stroke-linecap="round"/>
<path d="M282.031 437.447H304.349" stroke="white" stroke-width="5.98374" stroke-miterlimit="10" stroke-linecap="round"/>
<path opacity="0.4" d="M271.357 424.666H317.48" stroke="white" stroke-width="5.98374" stroke-miterlimit="10" stroke-linecap="round"/>
<path d="M469.231 553.864H227.432C226.674 553.879 225.921 553.731 225.226 553.43C224.529 553.129 223.906 552.682 223.397 552.12C222.889 551.557 222.507 550.892 222.277 550.169C222.048 549.446 221.977 548.683 222.067 547.929L229.284 472.87C229.463 471.26 230.223 469.77 231.42 468.678C232.616 467.587 234.169 466.967 235.789 466.935H477.587C478.345 466.92 479.098 467.068 479.794 467.369C480.49 467.671 481.113 468.117 481.622 468.68C482.13 469.242 482.512 469.907 482.742 470.63C482.971 471.354 483.042 472.117 482.951 472.87L475.736 547.929C475.555 549.539 474.797 551.029 473.6 552.12C472.403 553.213 470.85 553.832 469.231 553.864Z" fill="url(#paint3_linear_661_1001)"/>
<path d="M244.271 536.46L247.682 500.976" stroke="white" stroke-width="11.6898" stroke-miterlimit="10" stroke-linecap="round"/>
<path d="M269.299 511.603L266.909 536.46" stroke="white" stroke-width="11.6898" stroke-miterlimit="10" stroke-linecap="round"/>
<path d="M291.121 520.092L289.547 536.46" stroke="white" stroke-width="11.6898" stroke-miterlimit="10" stroke-linecap="round"/>
<path d="M316.483 491.755L312.186 536.461" stroke="white" stroke-width="11.6898" stroke-miterlimit="10" stroke-linecap="round"/>
<path d="M336.397 520.092L334.824 536.46" stroke="white" stroke-width="11.6898" stroke-miterlimit="10" stroke-linecap="round"/>
<path d="M361.57 493.729L357.462 536.46" stroke="white" stroke-width="11.6898" stroke-miterlimit="10" stroke-linecap="round"/>
<path d="M381.806 518.718L380.101 536.46" stroke="white" stroke-width="11.6898" stroke-miterlimit="10" stroke-linecap="round"/>
<path d="M403.647 527.009L402.739 536.461" stroke="white" stroke-width="11.6898" stroke-miterlimit="10" stroke-linecap="round"/>
<path d="M428.788 500.976L425.377 536.46" stroke="white" stroke-width="11.6898" stroke-miterlimit="10" stroke-linecap="round"/>
<path d="M452.725 487.465L448.015 536.46" stroke="white" stroke-width="11.6898" stroke-miterlimit="10" stroke-linecap="round"/>
<path d="M250.537 266.744L264.126 288.031C264.739 288.992 264.948 290.156 264.707 291.27C264.465 292.384 263.794 293.357 262.838 293.979L260.642 295.406C256.966 297.795 252.547 298.768 248.208 298.144C243.868 297.52 239.902 295.341 237.048 292.013L219.015 270.984L250.537 266.744Z" fill="#FFCCB3"/>
<path d="M240.168 274.936C240.168 274.936 245.199 292.213 255.308 297.756C257.933 296.74 260.455 295.475 262.838 293.979L251.503 274.936" fill="#FCBA9F"/>
<path d="M7.68848 352.633L61.065 327.054C66.0944 324.644 70.3467 320.871 73.3393 316.165L124.903 235.051C128.113 230.001 132.769 226.034 138.265 223.667L212.532 191.67L196.633 311.91L196.353 316.351C196.353 316.351 176.71 367.226 128.564 385.709L51.5892 432.79L7.68848 352.633Z" fill="#FFCCB3"/>
<path d="M65.7763 324.232C65.7763 324.232 91.0255 387.254 128.564 385.709L104.597 400.369C104.597 400.369 23.2464 385.278 53.698 330.46L65.7763 324.232Z" fill="#FCBA9F"/>
<path d="M201.037 213.923C201.037 213.923 174.778 229.834 176.171 266.745L207.705 254.961L201.037 213.923Z" fill="#FCBA9F"/>
<path d="M267.001 266.744L280.59 288.031C281.203 288.992 281.412 290.156 281.171 291.27C280.93 292.384 280.258 293.357 279.302 293.979L277.106 295.406C273.43 297.795 269.011 298.768 264.671 298.144C260.332 297.52 256.366 295.341 253.512 292.013L235.479 270.984L267.001 266.744Z" fill="#FFCCB3"/>
<path d="M467.895 275.139L211.237 274.911C210.189 274.939 209.146 274.744 208.18 274.337C207.213 273.93 206.344 273.322 205.631 272.554C204.918 271.784 204.377 270.872 204.045 269.877C203.712 268.882 203.596 267.829 203.704 266.786L217.541 113.141C217.792 110.923 218.844 108.875 220.502 107.381C222.158 105.887 224.305 105.051 226.536 105.03L483.193 105.259C484.242 105.23 485.284 105.426 486.251 105.832C487.218 106.239 488.087 106.847 488.799 107.615C489.513 108.385 490.053 109.297 490.386 110.292C490.718 111.287 490.834 112.341 490.728 113.383L476.891 267.028C476.64 269.245 475.586 271.294 473.93 272.788C472.272 274.282 470.126 275.118 467.895 275.139Z" fill="#1C85E8"/>
<path d="M228.23 196.181C228.23 196.181 251.269 191.521 257.47 202.332C263.67 213.142 269.016 233.445 285.513 230.828C302.01 228.21 314.638 175.131 330.856 175.616C347.074 176.1 341.356 210.863 359.009 211.348C376.662 211.834 373.522 191.93 385.288 192.485C399.559 193.158 394.239 234.4 412.848 234.886C431.457 235.372 434.494 180.409 462.626 181.374" stroke="white" stroke-width="7.56507" stroke-miterlimit="10" stroke-linecap="round"/>
<path d="M241.334 130.762L286.489 130.802" stroke="white" stroke-width="11.9991" stroke-miterlimit="10" stroke-linecap="round"/>
<path opacity="0.4" d="M239.469 151.461L332.786 151.545" stroke="white" stroke-width="11.9991" stroke-miterlimit="10" stroke-linecap="round"/>
<path d="M152.098 274.377L185.023 259.874L218.692 236.891C227.547 230.847 246.039 228.124 252.696 236.527C259.468 245.074 251.862 261.981 243.649 269.153L212.532 296.325L196.352 316.351L152.098 274.377Z" fill="#FFCCB3"/>
<path d="M219.015 245.619C219.015 245.619 223.46 262.759 234.984 265.725L247.207 255.398C248.447 254.475 249.485 253.31 250.26 251.973C251.034 250.635 251.528 249.154 251.711 247.62C251.894 246.086 251.763 244.53 251.326 243.048C250.888 241.566 250.153 240.189 249.166 239C247.442 236.924 245.036 235.527 242.378 235.061C239.719 234.595 236.981 235.089 234.653 236.455L219.015 245.619Z" stroke="#FF967C" stroke-width="3" stroke-linecap="round"/>
<path d="M63.0933 324.935C63.0933 324.935 56.7127 370.567 112.238 396.696C112.238 396.696 72.3512 433.285 56.9731 439.437C41.5959 445.589 -16.1814 382.718 4.36848 347.034C10.1315 337.027 63.0933 324.935 63.0933 324.935Z" fill="#1C85E8"/>
<path d="M273.479 276.892C273.479 276.892 251.837 277.334 244.304 281.276L238.866 274.936L272.23 274.936L273.479 276.892Z" fill="#FCBA9F"/>
<path d="M671.955 275.139H518.077C506.485 275.139 497.921 265.742 498.947 254.15L519.593 20.9876C520.619 9.39699 530.847 0 542.439 0H696.317C707.912 0 716.471 9.39699 715.445 20.9876L694.798 254.15C693.772 265.742 683.542 275.139 671.955 275.139Z" fill="#FEBB94"/>
<path d="M649.926 131.657C674.296 108.346 676.747 71.3698 655.414 49.0683C634.078 26.7667 597.029 27.5845 572.663 50.8954C548.298 74.2064 545.841 111.183 567.177 133.484C588.513 155.787 625.563 154.968 649.926 131.657Z" fill="white"/>
<path d="M614.556 93.0913L653.183 128.321C653.183 128.321 661.971 118.876 664.592 112.125L614.556 93.0913Z" fill="url(#paint4_linear_661_1001)"/>
<path d="M617.128 25.4165L611.639 87.4046C611.517 88.5336 611.728 89.6736 612.246 90.6848C612.765 91.695 613.568 92.5314 614.556 93.0913L666.967 122.27C666.967 122.27 698.09 35.4429 617.128 25.4165Z" fill="#1C85E8"/>
<path d="M535.092 192.613H598.84" stroke="white" stroke-width="12" stroke-miterlimit="10" stroke-linecap="round"/>
<path d="M530.426 245.317H594.174" stroke="white" stroke-width="12" stroke-miterlimit="10" stroke-linecap="round"/>
<path opacity="0.4" d="M532.786 218.667H664.524" stroke="white" stroke-width="12" stroke-miterlimit="10" stroke-linecap="round"/>
<path d="M482.713 446.908C482.713 446.908 503.262 441.428 514.199 453.204C514.199 453.204 533.856 449.635 541.848 460.57C541.848 460.57 559.276 461.58 564.323 468.688C568.52 469.268 572.489 470.948 575.825 473.56C579.161 476.171 581.747 479.62 583.317 483.555C588.083 494.787 584.041 559.722 579.304 582.99C578.12 588.81 578.525 594.841 580.479 600.45L592.527 635.075L509.163 669.924L489.372 618.302C489.372 618.302 465.28 579.587 461.838 572.703C458.397 565.82 464.23 508.705 452.481 473.025L482.713 446.908Z" fill="#FFCCB3"/>
<path d="M500.125 646.347L497.72 640.074C497.72 640.074 540.977 637.309 580.479 600.45L584.257 611.307C584.257 611.307 579.378 633.735 557.164 644.305C534.949 654.876 500.125 646.347 500.125 646.347Z" fill="#FCBA9F"/>
<path d="M500.124 646.346C500.124 646.346 552.485 651.115 584.257 611.307C584.257 611.307 595.988 617.456 614 662.483C619.533 676.313 527.15 725.552 512.213 705.084C512.213 705.084 499.318 677.807 500.124 646.346Z" fill="#5661AE"/>
<path d="M457.605 494.564C457.605 494.564 455.799 504.146 447.259 504.147C441.688 504.147 417.539 496.851 401.42 491.778C397.035 490.398 392.331 490.398 387.945 491.778C383.56 493.158 379.703 495.852 376.899 499.495L375.919 500.767C375.432 501.398 375.08 502.12 374.88 502.892C374.681 503.663 374.641 504.467 374.761 505.254C374.882 506.041 375.161 506.796 375.582 507.472C376.002 508.149 376.556 508.732 377.21 509.188C390.855 518.715 427.705 544.571 432.417 549.284C438.218 555.084 470.515 587.599 470.515 587.599L457.605 494.564Z" fill="#FFCCB3"/>
<path d="M455.644 484.962C455.644 484.962 473.099 508.588 470.515 513.76C467.931 518.932 440.866 503.119 440.866 503.119C440.866 503.119 462.706 508.737 455.644 484.962Z" fill="#FCBA9F"/>
<path d="M452.481 473.025L423.111 383.832C422.104 380.773 421.72 377.542 421.985 374.331C422.25 371.121 423.156 367.996 424.651 365.143C426.146 362.29 428.198 359.766 430.686 357.72C433.175 355.675 436.049 354.15 439.137 353.236C441.666 352.489 444.38 352.691 446.769 353.806C449.159 354.92 451.058 356.87 452.109 359.287L493.313 454.003L452.481 473.025Z" fill="#FFCCB3"/>
<path d="M439.745 434.346C440.577 435.713 441.683 436.894 442.993 437.813C444.303 438.734 445.789 439.372 447.358 439.691" stroke="#FF967C" stroke-width="3" stroke-linecap="round"/>
<path d="M450.312 388.686C453.886 387.102 457.828 384.889 459.523 382.306L448.587 356.338C448.353 355.779 448.002 355.276 447.559 354.862C447.115 354.448 446.589 354.133 446.015 353.938C445.441 353.743 444.832 353.672 444.228 353.731C443.624 353.789 443.039 353.975 442.513 354.276C438.622 356.523 433.484 360.575 433.285 366.395L440.682 384.802C441.045 385.701 441.585 386.517 442.271 387.202C442.956 387.888 443.773 388.428 444.671 388.79C445.57 389.153 446.533 389.331 447.503 389.313C448.472 389.295 449.427 389.081 450.312 388.686Z" stroke="#FF967C" stroke-width="3" stroke-linecap="round"/>
<path d="M489.999 446.383L500.125 468.688" stroke="#FF967C" stroke-width="3" stroke-linecap="round"/>
<path d="M514.604 453.661C519.749 461.037 522.507 469.816 522.504 478.811" stroke="#FF967C" stroke-width="3" stroke-linecap="round"/>
<path d="M542.332 460.988C542.332 460.988 547.429 472.678 547.85 481.922" stroke="#FF967C" stroke-width="3" stroke-linecap="round"/>
<path d="M565.036 469.382C567.044 474.315 567.823 479.662 567.305 484.963" stroke="#FF967C" stroke-width="3" stroke-linecap="round"/>
<path d="M398.777 520.092C398.777 520.092 404.808 512.433 402.739 508.591C400.67 504.749 391.467 499.316 386.149 499.907C383.611 500.29 381.162 501.124 378.919 502.371C378.511 502.583 378.166 502.9 377.919 503.288C377.671 503.676 377.529 504.121 377.506 504.581C377.484 505.041 377.581 505.499 377.79 505.909C377.999 506.319 378.311 506.668 378.697 506.92L398.777 520.092Z" stroke="#FF967C" stroke-width="3" stroke-linecap="round"/>
<path d="M295.059 613.489H111.314C110.556 613.503 109.803 613.355 109.107 613.054C108.411 612.753 107.787 612.306 107.279 611.744C106.77 611.181 106.388 610.515 106.159 609.793C105.929 609.07 105.858 608.307 105.95 607.553L113.165 532.494C113.345 530.884 114.104 529.394 115.301 528.302C116.498 527.211 118.05 526.591 119.67 526.559H303.416C304.175 526.544 304.927 526.692 305.623 526.993C306.319 527.294 306.943 527.741 307.452 528.303C307.96 528.866 308.341 529.531 308.571 530.254C308.8 530.978 308.871 531.741 308.781 532.494L301.565 607.553C301.385 609.163 300.626 610.653 299.429 611.744C298.233 612.836 296.679 613.456 295.059 613.489Z" fill="#FEBB94"/>
<path d="M128.564 546.133H241.962" stroke="#EF6A77" stroke-width="11.6898" stroke-miterlimit="10" stroke-linecap="round"/>
<path d="M128.564 546.133H207.365" stroke="white" stroke-width="11.6898" stroke-miterlimit="10" stroke-linecap="round"/>
<path d="M126.868 570.023H240.265" stroke="#EF6A77" stroke-width="11.6898" stroke-miterlimit="10" stroke-linecap="round"/>
<path d="M126.868 570.023H173.98" stroke="white" stroke-width="11.6898" stroke-miterlimit="10" stroke-linecap="round"/>
<path d="M123.16 593.914H236.558" stroke="#EF6A77" stroke-width="11.6898" stroke-miterlimit="10" stroke-linecap="round"/>
<path d="M123.16 593.914H151.971" stroke="white" stroke-width="11.6898" stroke-miterlimit="10" stroke-linecap="round"/>
<path d="M282.102 552.908C285.845 552.908 288.878 549.875 288.878 546.133C288.878 542.39 285.845 539.357 282.102 539.357C278.36 539.357 275.327 542.39 275.327 546.133C275.327 549.875 278.36 552.908 282.102 552.908Z" fill="white"/>
<path d="M279.905 575.754C283.648 575.754 286.681 572.72 286.681 568.979C286.681 565.236 283.648 562.203 279.905 562.203C276.163 562.203 273.129 565.236 273.129 568.979C273.129 572.72 276.163 575.754 279.905 575.754Z" fill="white"/>
<path d="M277.453 600.69C281.194 600.69 284.229 597.656 284.229 593.914C284.229 590.172 281.194 587.138 277.453 587.138C273.71 587.138 270.677 590.172 270.677 593.914C270.677 597.656 273.71 600.69 277.453 600.69Z" fill="white"/>
</g>
<defs>
<linearGradient id="paint0_linear_661_1001" x1="330.144" y1="-85.3889" x2="570.911" y2="1121.16" gradientUnits="userSpaceOnUse">
<stop stop-color="white"/>
<stop offset="1" stop-color="#94B9FF"/>
</linearGradient>
<linearGradient id="paint1_linear_661_1001" x1="358.578" y1="119.792" x2="381.923" y2="483.198" gradientUnits="userSpaceOnUse">
<stop stop-color="white"/>
<stop offset="1" stop-color="#94B9FF"/>
</linearGradient>
<linearGradient id="paint2_linear_661_1001" x1="427.93" y1="305.953" x2="466.116" y2="622.147" gradientUnits="userSpaceOnUse">
<stop stop-color="white"/>
<stop offset="1" stop-color="#94B9FF"/>
</linearGradient>
<linearGradient id="paint3_linear_661_1001" x1="346.013" y1="466.727" x2="352.739" y2="652.964" gradientUnits="userSpaceOnUse">
<stop stop-color="white"/>
<stop offset="1" stop-color="#94B9FF"/>
</linearGradient>
<linearGradient id="paint4_linear_661_1001" x1="638.327" y1="93.0073" x2="644.064" y2="168.143" gradientUnits="userSpaceOnUse">
<stop stop-color="white"/>
<stop offset="1" stop-color="#94B9FF"/>
</linearGradient>
</defs>
</svg>
