<svg width="1594" height="815" viewBox="0 0 1594 815" fill="none" xmlns="http://www.w3.org/2000/svg">
<path d="M1126.39 484.979H826.724V696.915H1126.39V484.979Z" fill="#5CA4E6"/>
<path d="M946.33 484.979H826.724V696.915H946.33V484.979Z" fill="url(#paint0_linear_731_780)"/>
<path d="M927.272 441.598C927.272 441.598 904.324 421.431 885.666 438.569C867.008 455.707 789.923 573.399 789.923 573.399L813.238 589.631L900.679 490.628L915.899 515.293L927.272 441.598Z" fill="#FCBA9F"/>
<path fill-rule="evenodd" clip-rule="evenodd" d="M911.753 666.76C921.404 659.765 931.352 652.554 941.827 650.226C942.063 650.172 942.308 650.17 942.545 650.22C942.781 650.269 943.004 650.37 943.198 650.514C943.392 650.657 943.552 650.841 943.667 651.052C943.782 651.264 943.85 651.497 943.864 651.736L945.012 671.014C945.036 671.411 944.914 671.803 944.669 672.118C944.424 672.433 944.072 672.648 943.679 672.725L871.917 686.793C866.626 687.831 863.232 685.548 861.605 681.495C861.552 681.356 861.54 681.203 861.572 681.057C861.604 680.911 861.677 680.777 861.783 680.671C861.89 680.566 862.026 680.492 862.173 680.461C862.32 680.429 862.474 680.44 862.614 680.493C872.041 683.928 882.448 683.568 891.61 679.489C898.23 676.562 904.916 671.715 911.753 666.76Z" fill="#5661AE"/>
<path fill-rule="evenodd" clip-rule="evenodd" d="M933.81 603.033C933.81 603.033 935.16 633.777 935.871 636.905C936.361 638.614 936.974 640.285 937.707 641.904C938.929 644.843 940.29 648.117 940.415 650.496C930.518 653.156 921.088 660.105 911.929 666.855C905.136 671.861 898.493 676.757 891.915 679.714C883.251 683.636 873.449 684.164 864.42 681.194C863.18 675.881 866.779 669.997 875.858 667.346C892.13 662.596 901.023 659.585 906.697 645.856C910.729 636.101 903.976 602.136 903.976 602.136L933.81 603.033Z" fill="#FFCCB3"/>
<path fill-rule="evenodd" clip-rule="evenodd" d="M907.38 640.353C910.571 640.154 923.249 639.306 935.386 637.694C937.745 637.381 939.85 641.881 938.842 644.744C938.183 646.834 937.691 648.976 937.37 651.147C933.41 652.618 929.611 654.501 926.032 656.766C926.766 651.664 923.703 649.406 919.153 649.638C915.558 649.823 907.44 652.141 903.254 653.401C903.023 653.47 902.779 653.47 902.549 653.402C902.319 653.334 902.112 653.201 901.954 653.018C901.796 652.835 901.692 652.61 901.656 652.368C901.62 652.128 901.652 651.882 901.749 651.659L906.308 641.115C906.4 640.901 906.549 640.715 906.738 640.581C906.928 640.446 907.149 640.368 907.38 640.353Z" fill="white"/>
<path fill-rule="evenodd" clip-rule="evenodd" d="M873.78 682.968C882.132 683.637 887.184 681.414 887.184 681.414L883.823 664.006L870.755 667.298L873.78 682.968Z" fill="white"/>
<path fill-rule="evenodd" clip-rule="evenodd" d="M769.197 605.512C781.091 606.404 793.351 607.323 802.828 612.346C803.042 612.459 803.229 612.617 803.377 612.809C803.524 613.001 803.628 613.223 803.682 613.461C803.735 613.697 803.737 613.943 803.687 614.181C803.636 614.418 803.535 614.642 803.39 614.836L791.688 630.434C791.447 630.756 791.098 630.978 790.707 631.061C790.316 631.144 789.907 631.081 789.559 630.884L725.87 595.021C721.174 592.376 720.085 588.41 721.492 584.228C721.542 584.086 721.633 583.961 721.753 583.869C721.872 583.777 722.015 583.722 722.165 583.71C722.315 583.697 722.465 583.729 722.598 583.801C722.73 583.872 722.84 583.981 722.913 584.113C727.833 592.894 735.974 599.389 745.594 602.209C752.532 604.263 760.772 604.88 769.197 605.512Z" fill="#5661AE"/>
<path fill-rule="evenodd" clip-rule="evenodd" d="M826.724 570.96L806.5 598.053C805.773 599.672 805.166 601.342 804.682 603.051C803.723 606.083 802.653 609.46 801.217 611.351C791.963 606.909 780.305 606.034 768.981 605.183C760.583 604.553 752.371 603.936 745.454 601.889C736.328 599.212 728.519 593.213 723.548 585.06C726.023 580.211 732.552 578.088 741.176 582.003C756.634 589.018 765.348 592.536 778.505 585.806C780.626 584.55 782.526 582.951 784.13 581.074L804.565 550.797L826.724 570.96Z" fill="#FCBA9F"/>
<path fill-rule="evenodd" clip-rule="evenodd" d="M782.621 582.641C785.219 584.55 795.577 592.097 806.014 598.724C808.042 600.013 806.751 604.726 804.115 606.211C802.249 607.344 800.479 608.622 798.823 610.035C794.806 608.576 790.644 607.529 786.406 606.91C790.283 603.579 789.379 599.919 785.706 597.158C782.807 594.976 775.021 591.467 770.965 589.706C770.742 589.609 770.553 589.451 770.419 589.252C770.285 589.053 770.212 588.821 770.208 588.582C770.204 588.343 770.271 588.108 770.399 587.906C770.527 587.703 770.711 587.54 770.932 587.437L781.297 582.517C781.507 582.416 781.743 582.374 781.976 582.396C782.21 582.418 782.433 582.503 782.621 582.641Z" fill="white"/>
<path fill-rule="evenodd" clip-rule="evenodd" d="M729.463 592.657C735.416 598.546 740.686 600.162 740.686 600.162L749.178 585.1L737.107 579.1L729.463 592.657Z" fill="white"/>
<path d="M959.154 427.058L898.356 437.916L910.323 486.295H949.267C949.267 486.295 967.78 446.296 959.154 427.058Z" fill="#FFCCB3"/>
<path d="M906.242 485.637C919.671 485.637 930.557 474.733 930.557 461.283C930.557 447.834 919.671 436.931 906.242 436.931C892.813 436.931 881.927 447.834 881.927 461.283C881.927 474.733 892.813 485.637 906.242 485.637Z" fill="#FFCCB3"/>
<path d="M881.927 465.233L906.341 618.727L934.5 619.907L931.213 468.178L881.927 465.233Z" fill="#FFCCB3"/>
<path d="M920.7 431.697C920.7 431.697 930.02 434.577 933.867 449.827C937.714 465.077 933.516 486.295 933.516 486.295H939.509C939.509 486.295 960.878 461.119 945.156 429.032L920.7 431.697Z" fill="#FF967C"/>
<path d="M979.614 300.686L971.946 304.351C969.005 305.757 966.413 307.792 964.353 310.311C962.294 312.831 960.818 315.772 960.031 318.925L942.695 388.418L903.613 407.035L912.523 421.134L986.417 418.523L979.614 300.686Z" fill="#5661AE"/>
<path d="M968.164 325.697C968.164 325.697 954.759 344.471 961.246 362.352C967.732 380.234 965.084 383.549 963.461 399.391C961.839 415.232 967.137 411.548 967.137 411.548L985.942 402.706C985.942 402.706 993.789 327.772 968.164 325.697Z" fill="#465393"/>
<path d="M1047.45 412.123C1047.45 412.123 1054.89 448.597 1045.14 463.84C1032.79 483.133 1017.69 486.087 1006.53 486.295H933.268C933.268 486.295 933.133 440.527 897.042 432.707C897.042 432.707 1015.82 399.58 1047.45 412.123Z" fill="#1F2D49"/>
<path d="M1048.85 422.503L971.302 425.083L972.127 419.609L987.238 417.843H1048.74L1048.85 422.503Z" fill="#0D1B33"/>
<path d="M948.483 405.338C948.483 405.338 938.984 408.106 934.718 409.365C930.451 410.623 922.014 413.643 922.014 413.643L928.192 422.451L956.187 420.781L948.483 405.338Z" fill="#FFCCB3"/>
<path d="M994.664 293.781C994.664 293.781 978.693 300.098 976.254 302.048C973.816 303.998 971.5 319.914 967.354 327.471C963.209 335.028 957.145 348.975 966.002 361.788C974.861 374.599 973.918 384.772 973.918 384.772L972.033 416.91L1045.92 419.157C1046.59 419.178 1047.26 419.057 1047.88 418.8C1048.5 418.543 1049.06 418.158 1049.53 417.669C1049.99 417.18 1050.34 416.598 1050.56 415.963C1050.78 415.327 1050.86 414.653 1050.8 413.983C1049.95 404.613 1048.53 390.614 1048.22 375.693C1047.81 355.473 1047.5 287.908 1047.5 287.908L1014.25 286.864C1007.55 288.019 994.664 293.781 994.664 293.781Z" fill="#5661AE"/>
<path d="M1047.21 323.722C1057.19 323.722 1065.28 315.766 1065.28 305.951C1065.28 296.137 1057.19 288.18 1047.21 288.18C1037.22 288.18 1029.13 296.137 1029.13 305.951C1029.13 315.766 1037.22 323.722 1047.21 323.722Z" fill="#5661AE"/>
<path d="M1049.51 406.419C1049.51 406.419 1047.98 411.99 1031.65 418.501C1031.65 418.501 993.382 417.671 974.367 418.07C955.353 418.469 976.406 413.462 987.02 408.18C997.634 402.897 1048.3 388.225 1048.3 388.225L1049.51 406.419Z" fill="#465393"/>
<path d="M1034.51 315.824C1034.51 315.824 1023.38 325.913 1022.73 333.4C1022.07 340.886 1020.56 361.76 1006.26 363.842C988.738 366.394 984.151 368.878 992.276 370.831C1000.4 372.784 1018.84 369.619 1018.84 377.992C1018.84 383.949 1026 388.407 1029.6 385.152C1033.2 381.898 1061.87 332.423 1034.51 315.824Z" fill="#465393"/>
<path d="M1065.2 308.386C1063.69 315.575 1049.37 391.321 1049.37 391.321C1049.37 391.321 1047.49 402.652 1036.42 405.454L959.251 425.083L945.672 404.703L1015.66 380.754L1029.58 305.764C1029.58 305.764 1067.21 298.794 1065.2 308.386Z" fill="#5661AE"/>
<path d="M992.989 279.869L993.715 304.808C993.715 304.808 993.52 309.111 998.661 308.53C1003.8 307.95 1014.15 304.045 1017 299.017C1019.86 293.987 1018.06 292.263 1018.06 292.263L1002.37 261.194L992.989 279.869Z" fill="#FFCCB3"/>
<path d="M992.989 282.718L999.56 275.016L993.554 298.711L992.989 282.718Z" fill="#FF967C"/>
<path d="M998.292 218.618C998.009 213.884 999.05 209.164 1001.3 204.979C1005.03 198.302 1012.77 189.067 1024.52 193.046C1036.27 197.023 1044.87 205.974 1040.43 218.618C1035.99 231.263 1023.64 235.309 1017.35 233.962C1011.07 232.615 998.292 218.618 998.292 218.618Z" fill="#080B09"/>
<path d="M994.96 220.303C995.631 219.142 996.635 218.222 997.835 217.669C999.035 217.116 1000.37 216.958 1001.66 217.216C1006.27 218.087 1011.12 221.824 1015.25 226.306C1019.37 230.789 1019.24 234.043 1017.36 236.027C1015.49 238.013 994.96 220.303 994.96 220.303Z" fill="#FEBB94"/>
<path d="M892.441 347.417L922.128 429.032H981.817C981.817 426.54 980.819 424.15 979.043 422.388C977.268 420.626 974.859 419.636 972.347 419.636H929.165L903.531 347.417H892.441Z" fill="white"/>
<path d="M892.511 347.417H812.924L843.703 429.032H922.014L892.511 347.417Z" fill="#D4DCF4"/>
<path d="M867.469 398.097C871.462 398.097 874.698 394.855 874.698 390.858C874.698 386.859 871.462 383.617 867.469 383.617C863.476 383.617 860.24 386.859 860.24 390.858C860.24 394.855 863.476 398.097 867.469 398.097Z" fill="white"/>
<path d="M960.812 249.586C960.812 249.586 963.249 273.345 974.701 284.163C982.17 291.219 989.019 289.411 999.231 275.291C1008.59 262.344 1009.42 256.049 1009.42 256.049L999.522 233.575C999.522 233.575 959.649 227.846 960.812 249.586Z" fill="#FFCCB3"/>
<path d="M964.61 244.528C964.61 244.528 970.269 253.652 980.635 253.799C982.805 255.599 985.395 256.803 988.157 257.295C990.919 257.788 993.759 257.551 996.404 256.61C996.404 256.61 992.27 250.259 996.404 248.033C1003.42 244.254 1005.84 256.855 1002.1 261.243C999.554 264.226 1002.24 267.699 1004.14 270.805C1006.04 273.91 1012.17 281.598 1012.17 281.598C1012.17 281.598 1011.59 277.163 1014.36 273.91C1017.14 270.656 1026.14 237.353 1009.42 225.101C992.705 212.851 975.11 222.652 971.811 225.101C971.811 225.101 954.247 228.208 954.216 246.707C954.189 262.522 965.303 266.284 965.303 266.284L961.986 253.519C961.986 253.519 964.038 253.741 964.61 244.528Z" fill="#080B09"/>
<path d="M983.605 273.7C983.605 273.7 984.937 278.047 980.421 280.066C977.374 281.115 975.245 277.992 975.245 277.992L983.605 273.7Z" fill="#E56441"/>
<path d="M968.033 267.744C969.056 267.534 969.584 266.346 969.211 265.091C968.839 263.837 967.709 262.991 966.685 263.2C965.662 263.411 965.135 264.598 965.507 265.853C965.879 267.107 967.01 267.954 968.033 267.744Z" fill="#080B09"/>
<path d="M981.392 265.107C982.245 264.867 982.685 263.509 982.375 262.076C982.065 260.642 981.122 259.674 980.269 259.915C979.417 260.155 978.977 261.512 979.288 262.945C979.598 264.379 980.541 265.347 981.392 265.107Z" fill="#080B09"/>
<path d="M962.664 260.519L969.637 258.89C969.753 258.853 969.852 258.773 969.915 258.667C969.978 258.561 970.001 258.434 969.98 258.312C969.903 258.104 969.784 257.913 969.633 257.752C969.481 257.591 969.298 257.463 969.096 257.376C968.894 257.289 968.678 257.244 968.458 257.245C968.239 257.245 968.023 257.291 967.821 257.379L962.353 259.736C961.899 259.851 962.095 260.662 962.664 260.519Z" fill="#080B09"/>
<path d="M986.201 254.528L976.608 257.245C976.544 256.974 976.543 256.694 976.606 256.423C976.669 256.152 976.794 255.896 976.973 255.672C977.152 255.448 977.381 255.259 977.646 255.119C977.91 254.979 978.204 254.892 978.509 254.861L986.173 253.958C986.413 253.905 986.562 254.448 986.201 254.528Z" fill="#080B09"/>
<path d="M972.956 263.168L971.959 271.041L974.588 272.383" stroke="#E56441" stroke-width="0.94666" stroke-linecap="round"/>
<path d="M406.04 611.028L440.225 682.355L435.985 684.377C434.554 685.059 432.91 685.146 431.415 684.619C429.92 684.093 428.696 682.995 428.013 681.569L398.983 621.002C398.3 619.575 398.212 617.936 398.74 616.444C399.268 614.952 400.369 613.732 401.799 613.05L406.04 611.028Z" fill="#71C8EA"/>
<path d="M443.108 595.01L419.312 604.718L432.661 623.35L453.757 616.997L443.108 595.01Z" fill="#FFCCB3"/>
<path d="M428.139 605.459C428.139 605.459 437.404 619.635 438.801 627.555C440.198 635.476 444.985 675.542 443.698 679.153C442.772 681.749 439.409 682.863 437.276 683.099C436.808 683.148 436.336 683.052 435.925 682.824C435.515 682.596 435.186 682.247 434.985 681.825L403.772 617.142C403.25 616.063 403.177 614.824 403.567 613.692C403.958 612.56 404.781 611.625 405.861 611.088C410.179 608.939 416.785 605.718 419.566 604.715C423.865 603.165 426.702 603.175 428.139 605.459Z" fill="#5661AE"/>
<path d="M594.506 639.773L562.53 698.488C561.777 699.872 560.502 700.901 558.986 701.349C557.47 701.797 555.837 701.628 554.447 700.878L550.325 698.658L587.982 629.511L592.103 631.733C593.494 632.482 594.528 633.75 594.979 635.258C595.43 636.765 595.26 638.39 594.506 639.773Z" fill="#71C8EA"/>
<path d="M551.64 611.028L574.928 621.961L560.63 639.985L539.869 632.554L551.64 611.028Z" fill="#FFCCB3"/>
<path d="M566.032 622.536C566.032 622.536 556.066 636.247 554.268 644.098C552.47 651.949 545.654 691.775 546.754 695.452C547.545 698.094 550.843 699.376 552.96 699.719C553.424 699.792 553.9 699.72 554.321 699.512C554.742 699.304 555.088 698.971 555.31 698.559L589.748 635.44C590.323 634.387 590.46 633.152 590.128 632.001C589.796 630.848 589.022 629.872 587.972 629.281C583.774 626.916 577.346 623.364 574.623 622.222C570.413 620.456 567.582 620.323 566.032 622.536Z" fill="#5661AE"/>
<path d="M620.802 527.283C620.802 527.283 629.594 570.921 622.771 579.471L448.901 623.966L434.074 596.21L535.606 550.164L555.94 522.31L620.802 527.283Z" fill="#D1E8F7"/>
<path d="M576.774 558.044L538.359 570.938L520.433 578.481L543.744 599.527L522.903 604.251L466.058 558.044H576.774Z" fill="#5CA4E6"/>
<path d="M445.145 592.461L446.327 596.595L473.31 617.806L498.658 611.578C498.658 611.578 449.76 588.143 445.145 592.461Z" fill="#5CA4E6"/>
<path d="M493.977 524.289C493.977 524.289 444.691 521.612 420.262 523.762C404.532 525.146 398.861 565.444 411.414 572.776L546.136 641.833L562.012 613.113L475.104 554.22L537.28 545.465L493.977 524.289Z" fill="#D1E8F7"/>
<path d="M424.233 576.527C438.84 576.527 450.681 564.666 450.681 550.035C450.681 535.403 438.84 523.542 424.233 523.542C409.625 523.542 397.784 535.403 397.784 550.035C397.784 564.666 409.625 576.527 424.233 576.527Z" fill="#D1E8F7"/>
<path d="M618.6 579.607C633.207 579.607 645.048 567.885 645.048 553.423C645.048 538.962 633.207 527.239 618.6 527.239C603.992 527.239 592.151 538.962 592.151 553.423C592.151 567.885 603.992 579.607 618.6 579.607Z" fill="#D1E8F7"/>
<path d="M546.389 428.86C543.627 415.139 550.122 415.493 552.284 413.312C552.284 413.312 560.393 406.583 566.572 412.855C573.112 419.49 610.603 471.028 610.603 471.028L587.145 492.738L582.736 487.443L571.314 473.736L559.097 459.086L557.579 457.418L541.099 438.634C541.099 438.634 547.951 436.083 546.389 428.86Z" fill="#5661AE"/>
<path d="M559.469 443.12C568.969 439.933 574.091 429.636 570.909 420.12C567.727 410.605 557.447 405.475 547.947 408.662C538.447 411.849 533.325 422.147 536.507 431.662C539.689 441.177 549.97 446.307 559.469 443.12Z" fill="#5661AE"/>
<path d="M557.636 457.56C557.158 454.675 556.203 448.905 555.175 443.645L549.71 418.19C549.71 418.19 564.386 439.942 571.147 455.093C576.155 466.447 581.964 478.019 582.925 487.809L571.394 474.016L559.059 459.275L557.636 457.56Z" fill="#465393"/>
<path d="M634.592 413.494C640.157 403.18 637.483 401.429 639.85 395.559C642.182 389.832 638.041 375.637 642.006 377.572C645.97 379.508 647.197 384.652 647.197 384.652C649.908 379.778 652.405 370.81 658.895 369.783C665.387 368.757 665.961 370.833 669.64 373.901C679.428 382.176 666.947 394.614 664.864 399.35C663.523 402.319 653.676 411.369 652.585 413.348L647.628 420.654L634.592 413.494Z" fill="#FFCCB3"/>
<path d="M653.659 385.537L661.655 370.75" stroke="#E56441" stroke-width="0.94666" stroke-linecap="round"/>
<path d="M658.58 388.001L667.191 373.831" stroke="#E56441" stroke-width="0.94666" stroke-linecap="round"/>
<path d="M664.731 390.466L670.267 381.84" stroke="#E56441" stroke-width="0.94666" stroke-linecap="round"/>
<path d="M651.814 398.475C651.772 393.179 648.739 386.769 648.739 386.769L651.814 398.475Z" fill="#E56441"/>
<path d="M651.814 398.475C651.772 393.179 648.739 386.769 648.739 386.769" stroke="#E56441" stroke-width="0.94666" stroke-linecap="round"/>
<path d="M587.23 470.791L634.881 407.203C635.184 406.829 635.615 406.582 636.09 406.508C636.565 406.433 637.051 406.538 637.454 406.802L649.931 415.07C650.524 415.473 650.946 416.083 651.116 416.779C651.287 417.476 651.192 418.212 650.85 418.843L612.531 489.657L587.23 470.791Z" fill="#5661AE"/>
<path d="M598.916 497.667C607.749 497.667 614.909 490.496 614.909 481.648C614.909 472.802 607.749 465.63 598.916 465.63C590.085 465.63 582.925 472.802 582.925 481.648C582.925 490.496 590.085 497.667 598.916 497.667Z" fill="#5661AE"/>
<path d="M527.759 399.707C527.759 399.707 554.589 406.817 559.195 408.662C563.801 410.506 564.108 417.885 564.415 423.112C564.722 428.338 563.691 545.722 563.691 545.722L504.313 543.435L459.907 517.407C459.907 517.407 461.838 424.269 462.452 419.964C463.066 415.66 458.241 411.953 463.471 409.786L497.094 400.893L527.759 399.707Z" fill="#5661AE"/>
<path d="M482.808 441.235L483.281 528.471L458.062 499.815L470.263 438.521L482.808 441.235Z" fill="#465393"/>
<path d="M492.362 402.155C492.362 402.155 488.536 409.683 492.362 414.876C496.188 420.068 511.506 425.112 521.97 424.964C532.434 424.816 537.979 415.056 533.235 401.391L515.904 396.627L496.773 400.851L492.362 402.155Z" fill="#465393"/>
<path d="M535.47 336.249C535.47 336.249 542.919 352.306 534.974 355.623C527.029 358.939 527.954 337.028 535.47 336.249Z" fill="#93523E"/>
<path d="M527.038 387.611L529.176 412.365C529.176 412.365 531.225 415.684 523.245 417.427C518.111 418.548 504.286 412.954 501.605 411.276C500.464 410.654 499.571 409.643 499.078 408.417C498.586 407.192 498.524 405.828 498.905 404.561C499.72 401.531 503.097 376.295 503.097 376.295L527.038 387.611Z" fill="#FFCCB3"/>
<path d="M527.891 392.449L514.65 386.153L529.412 408.948L527.891 392.449Z" fill="#FF967C"/>
<path d="M531.256 340.522C531.256 340.522 538.765 359.505 541.488 372.822C544.236 386.257 539.852 389.612 534.066 391.588C529.504 393.147 522.217 394.389 517.26 392.826C508.221 389.973 499.379 381.74 497.264 380.049C493.989 377.431 490.756 365.556 495.556 358.837C500.355 352.118 519.265 331.005 531.256 340.522Z" fill="#FFCCB3"/>
<path d="M521.602 366.965C522.621 366.583 522.951 365.072 522.338 363.59C521.726 362.107 520.405 361.215 519.385 361.597C518.366 361.979 518.036 363.491 518.648 364.973C519.26 366.455 520.582 367.348 521.602 366.965Z" fill="#080B09"/>
<path d="M535.749 361.42C536.768 361.039 537.098 359.527 536.485 358.044C535.874 356.562 534.551 355.67 533.532 356.052C532.513 356.434 532.183 357.946 532.795 359.428C533.407 360.911 534.729 361.802 535.749 361.42Z" fill="#080B09"/>
<path d="M530.339 363.973C530.339 363.973 529.027 367.775 531.785 367.404C534.405 366.963 536.183 368.203 533.894 370.75" fill="#E56441"/>
<path d="M530.339 363.973C530.339 363.973 529.027 367.775 531.785 367.404C534.405 366.963 536.183 368.203 533.894 370.75" stroke="#E56441" stroke-width="0.94666" stroke-linecap="round"/>
<path d="M534.021 373.848L534.035 373.844L534.048 373.84C534.086 373.83 534.126 373.828 534.163 373.837C534.201 373.846 534.237 373.865 534.265 373.893C534.293 373.919 534.314 373.954 534.325 373.992C534.335 374.029 534.336 374.069 534.326 374.107L534.317 374.14L534.314 374.173C534.148 375.876 533.723 376.887 533.207 377.456C532.708 378.006 532.083 378.189 531.374 378.135C530.646 378.08 529.846 377.774 529.072 377.354C528.306 376.94 527.595 376.43 527.046 375.993C527.008 375.958 526.981 375.914 526.966 375.866C526.949 375.814 526.947 375.759 526.961 375.708C526.973 375.655 527.001 375.608 527.038 375.57C527.077 375.532 527.124 375.506 527.177 375.493L527.181 375.492C529.277 374.963 532.438 374.22 534.021 373.848Z" fill="#E56441" stroke="#E56441"/>
<path d="M513.004 360.395L513.19 360.651C513.428 361.047 513.816 361.336 514.269 361.452C514.722 361.568 515.203 361.505 515.609 361.273L522.465 357.126C522.806 356.939 523.062 356.633 523.184 356.269C523.305 355.905 523.283 355.509 523.122 355.16C523.033 354.943 522.899 354.745 522.726 354.582C522.554 354.419 522.348 354.293 522.124 354.213C521.899 354.135 521.659 354.102 521.421 354.121C521.182 354.139 520.95 354.207 520.74 354.319L513.697 358.211C513.503 358.307 513.33 358.44 513.189 358.603C513.049 358.766 512.942 358.955 512.878 359.159C512.814 359.363 512.791 359.577 512.813 359.79C512.834 360.002 512.9 360.209 513.004 360.395Z" fill="#080B09"/>
<path d="M536.756 349.204L528.504 349.988C528.26 350.015 528.024 350.093 527.812 350.221C527.6 350.347 527.417 350.519 527.274 350.723C527.132 350.927 527.034 351.161 526.986 351.407C526.938 351.654 526.941 351.908 526.995 352.154C527.066 352.558 527.282 352.919 527.601 353.167C527.92 353.415 528.318 353.532 528.716 353.493L536.963 353.045C537.441 353.006 537.886 352.774 538.199 352.401C538.512 352.027 538.668 351.542 538.633 351.05L538.638 350.714C538.615 350.486 538.547 350.266 538.439 350.066C538.331 349.865 538.185 349.69 538.009 349.549C537.833 349.408 537.632 349.305 537.417 349.246C537.201 349.187 536.976 349.172 536.756 349.204Z" fill="#080B09"/>
<path d="M522.163 344.215C522.163 344.215 518.07 352.008 510.645 354.319C503.22 356.63 507.277 368.355 507.277 368.355C507.277 368.355 502.186 363.288 496.333 366.14C490.48 368.994 494.923 380.189 503.009 380.332L500.81 392.93C500.81 392.93 496.714 387.827 492.408 385.096C488.101 382.366 472.628 371.767 479.463 357.809C479.463 357.809 474.116 338.208 488.782 328.046C503.448 317.883 516.142 321.718 516.142 321.718C516.142 321.718 519.638 316.169 527.742 317.303C535.846 318.436 537.715 333.058 535.032 338.347C532.348 343.635 527.975 345.883 522.163 344.215Z" fill="#93523E"/>
<path d="M460.813 422.879C471.086 413.503 474.12 419.256 477.089 419.997C477.089 419.997 486.986 423.519 484.815 432.024C482.519 441.025 457.853 499.515 457.853 499.515L427.308 490.472L429.556 483.985L435.371 467.184L441.582 449.219L442.224 447.065L449.767 423.331C449.767 423.331 455.46 427.908 460.813 422.879Z" fill="#5661AE"/>
<path d="M481.38 438.943C487.897 431.318 487.008 419.845 479.396 413.317C471.784 406.789 460.329 407.679 453.813 415.304C447.295 422.929 448.183 434.403 455.796 440.93C463.409 447.458 474.862 446.568 481.38 438.943Z" fill="#5661AE"/>
<path d="M454.864 485.345L511.659 541.238C511.989 541.59 512.178 542.052 512.189 542.536C512.2 543.02 512.033 543.491 511.719 543.858L501.886 555.22C501.41 555.759 500.751 556.101 500.037 556.179C499.324 556.257 498.606 556.065 498.026 555.642L432.844 508.109L454.864 485.345Z" fill="#5661AE"/>
<path d="M442.685 511.221C451.517 511.221 458.677 504.049 458.677 495.203C458.677 486.355 451.517 479.184 442.685 479.184C433.853 479.184 426.693 486.355 426.693 495.203C426.693 504.049 433.853 511.221 442.685 511.221Z" fill="#5661AE"/>
<path d="M534.948 474.255L504.098 560.508H442.07C442.07 557.875 443.107 555.349 444.952 553.487C446.798 551.624 449.3 550.578 451.91 550.578H496.785L523.424 474.255H534.948Z" fill="white"/>
<path d="M535.133 474.255H618.599L586.319 560.508H504.194L535.133 474.255Z" fill="url(#paint1_linear_731_780)"/>
<g filter="url(#filter0_d_731_780)">
<path d="M326.098 106.014H103.975C95.8441 106.014 89.2529 112.605 89.2529 120.736V261.37C89.2529 269.5 95.8441 276.092 103.975 276.092H326.098C334.229 276.092 340.82 269.5 340.82 261.37V120.736C340.82 112.605 334.229 106.014 326.098 106.014Z" fill="url(#paint2_linear_731_780)"/>
<path d="M106.088 106.014H324.345C328.763 106.014 332.999 107.769 336.122 110.892C339.245 114.016 341 118.252 341 122.669H89.4329C89.4329 118.252 91.1877 114.016 94.311 110.892C97.4343 107.769 101.671 106.014 106.088 106.014Z" fill="#5CA4E6"/>
<path d="M221.863 133.24H324.613C326.376 133.24 328.066 133.94 329.313 135.186C330.56 136.433 331.26 138.124 331.26 139.886V190.677C331.26 192.44 330.56 194.131 329.313 195.377C328.066 196.624 326.376 197.324 324.613 197.324H221.863C220.1 197.324 218.41 196.624 217.163 195.377C215.917 194.131 215.216 192.44 215.216 190.677V139.886C215.216 139.014 215.389 138.149 215.722 137.343C216.056 136.537 216.546 135.804 217.163 135.186C217.781 134.569 218.513 134.08 219.32 133.745C220.126 133.411 220.99 133.24 221.863 133.24Z" stroke="#5661AE" stroke-width="0.340083" stroke-miterlimit="10" stroke-dasharray="4.06 4.06"/>
<path d="M297.033 206.719H194.283C190.612 206.719 187.636 209.695 187.636 213.366V264.156C187.636 267.827 190.612 270.803 194.283 270.803H297.033C300.704 270.803 303.68 267.827 303.68 264.156V213.366C303.68 209.695 300.704 206.719 297.033 206.719Z" fill="white"/>
<path d="M175.186 206.719H103.388C100.283 206.719 97.7655 209.236 97.7655 212.342V265.18C97.7655 268.286 100.283 270.803 103.388 270.803H175.186C178.292 270.803 180.809 268.286 180.809 265.18V212.342C180.809 209.236 178.292 206.719 175.186 206.719Z" fill="white"/>
<path d="M197.092 253.322C197.092 253.322 204.793 252.511 209.424 255.978C215.634 260.626 220.635 264.215 227.237 252.789C234.47 240.271 235.607 235.899 240.883 235.847C247.656 235.781 250.3 253.833 262.787 255.108C275.274 256.384 283.765 254.343 283.765 254.343" stroke="#5661AE" stroke-width="3.40083" stroke-miterlimit="10" stroke-linecap="round"/>
<path d="M197.092 217.295H215.037" stroke="#5661AE" stroke-width="5.44132" stroke-miterlimit="10" stroke-linecap="round"/>
<path d="M197.092 225.669H234.176" stroke="#D4DCF4" stroke-width="5.44132" stroke-miterlimit="10" stroke-linecap="round"/>
<path d="M104.653 118.108C106.224 118.108 107.498 116.834 107.498 115.262C107.498 113.69 106.224 112.416 104.653 112.416C103.081 112.416 101.807 113.69 101.807 115.262C101.807 116.834 103.081 118.108 104.653 118.108Z" fill="white"/>
<path d="M114.297 118.108C115.869 118.108 117.143 116.834 117.143 115.262C117.143 113.69 115.869 112.416 114.297 112.416C112.726 112.416 111.451 113.69 111.451 115.262C111.451 116.834 112.726 118.108 114.297 118.108Z" fill="white"/>
<path d="M123.667 118.108C125.238 118.108 126.513 116.834 126.513 115.262C126.513 113.69 125.238 112.416 123.667 112.416C122.095 112.416 120.821 113.69 120.821 115.262C120.821 116.834 122.095 118.108 123.667 118.108Z" fill="white"/>
<path d="M273.403 176.799C279.762 176.799 284.918 171.643 284.918 165.283C284.918 158.923 279.762 153.767 273.403 153.767C267.042 153.767 261.887 158.923 261.887 165.283C261.887 171.643 267.042 176.799 273.403 176.799Z" fill="#1C85E8"/>
<path d="M274.311 159.841C274.311 159.339 273.905 158.932 273.403 158.932C272.9 158.932 272.494 159.339 272.494 159.841V171.453C272.494 171.955 272.9 172.362 273.403 172.362C273.905 172.362 274.311 171.955 274.311 171.453V159.841Z" fill="white"/>
<path d="M279.209 166.556C279.71 166.556 280.118 166.149 280.118 165.647C280.118 165.145 279.71 164.738 279.209 164.738H267.596C267.094 164.738 266.687 165.145 266.687 165.647C266.687 166.149 267.094 166.556 267.596 166.556H279.209Z" fill="white"/>
<path d="M193.016 135.093L92.3798 151.568C90.6528 151.85 89.4823 153.479 89.7649 155.206L96.3363 195.349C96.6189 197.076 98.2482 198.246 99.9748 197.963L200.611 181.489C202.338 181.207 203.509 179.578 203.226 177.851L196.654 137.708C196.372 135.981 194.743 134.81 193.016 135.093Z" fill="#FEBB94"/>
<path d="M141.59 160.262L182.489 153.567" stroke="white" stroke-width="5.61844" stroke-miterlimit="10" stroke-linecap="round"/>
<path opacity="0.7" d="M144.495 172.681L171.175 168.313" stroke="white" stroke-width="5.61844" stroke-miterlimit="10" stroke-linecap="round"/>
<path d="M117.142 187.654C125.131 187.654 131.607 181.178 131.607 173.189C131.607 165.2 125.131 158.724 117.142 158.724C109.153 158.724 102.677 165.2 102.677 173.189C102.677 181.178 109.153 187.654 117.142 187.654Z" stroke="#EF6A77" stroke-width="5.61844" stroke-miterlimit="10"/>
<path d="M131.417 170.851C131.879 173.675 131.494 176.572 130.309 179.176C129.125 181.78 127.195 183.975 124.764 185.483C122.332 186.99 119.508 187.742 116.649 187.645C113.79 187.548 111.024 186.604 108.701 184.935C106.378 183.265 104.602 180.944 103.597 178.265C102.593 175.586 102.406 172.67 103.06 169.885C103.713 167.099 105.178 164.571 107.268 162.617C109.359 160.665 111.982 159.376 114.805 158.914" stroke="white" stroke-width="5.61844" stroke-miterlimit="10" stroke-linecap="round"/>
</g>
<g opacity="0.7">
<path d="M39.5177 444.318C52.2875 453.695 85.9653 478.165 128.738 474.279C129.154 474.23 129.575 474.271 129.974 474.4C130.373 474.528 130.74 474.741 131.049 475.023C131.358 475.306 131.603 475.652 131.767 476.037C131.931 476.423 132.01 476.839 131.999 477.258V545.03C131.978 545.928 131.647 546.79 131.064 547.472C130.481 548.154 129.681 548.614 128.798 548.775C115.938 550.94 62.4523 549.871 34.8594 522.254C34.574 521.968 34.3481 521.628 34.1949 521.254C34.0417 520.879 33.9643 520.479 33.9669 520.074V447.544C33.9669 444.671 37.332 442.714 39.5177 444.318Z" fill="#96BAFD"/>
</g>
<path d="M60.3007 512.889C53.1746 510.376 47.3976 502.563 47.3976 495.436C47.3976 488.31 53.1746 484.57 60.3007 487.083V478.801C48.7884 474.742 39.4556 480.784 39.4556 492.296C39.4556 503.808 48.7884 516.431 60.3007 520.491C71.3264 524.379 80.3469 518.997 81.0899 508.422L73.1533 505.623C72.5923 512.034 67.0542 515.271 60.3007 512.889Z" fill="white"/>
<path d="M62.9473 477.087V485.37C70.0733 487.882 75.8504 495.696 75.8504 502.822C75.8504 503.195 75.8308 503.556 75.7999 503.909L83.7368 506.708C83.7695 506.241 83.792 505.769 83.792 505.282C83.792 493.77 74.4596 481.147 62.9473 477.087Z" fill="#1C85E8"/>
<path d="M47.3976 495.437L39.4556 492.636" stroke="white" stroke-width="0.881749" stroke-miterlimit="10"/>
<path d="M93.7286 496.621L108.466 499.421" stroke="white" stroke-width="3.76493" stroke-miterlimit="10" stroke-linecap="round"/>
<path opacity="0.4" d="M93.7286 519.711L108.466 522.512" stroke="white" stroke-width="3.76493" stroke-miterlimit="10" stroke-linecap="round"/>
<path d="M93.7286 508.401L114.901 512.424" stroke="white" stroke-width="3.76493" stroke-miterlimit="10" stroke-linecap="round"/>
<path d="M1336.29 111H1201.31C1195.61 111 1191 115.615 1191 121.309V169.521C1191 175.214 1195.61 179.829 1201.31 179.829H1336.29C1341.98 179.829 1346.6 175.214 1346.6 169.521V121.309C1346.6 115.615 1341.98 111 1336.29 111Z" fill="url(#paint3_linear_731_780)"/>
<path d="M1241.59 121.959H1212.3C1207.44 121.959 1203.49 125.905 1203.49 130.772V160.057C1203.49 164.924 1207.44 168.87 1212.3 168.87H1241.59C1246.45 168.87 1250.4 164.924 1250.4 160.057V130.772C1250.4 125.905 1246.45 121.959 1241.59 121.959Z" fill="white"/>
<path d="M1262.67 139.504H1295.35" stroke="white" stroke-width="7.4328" stroke-miterlimit="10" stroke-linecap="round"/>
<path opacity="0.4" d="M1262.67 154.757H1330.21" stroke="white" stroke-width="7.4328" stroke-miterlimit="10" stroke-linecap="round"/>
<path d="M1208.94 157.691L1216.42 147.231C1216.69 146.849 1217.05 146.536 1217.47 146.32C1217.89 146.103 1218.35 145.989 1218.82 145.985C1219.29 145.982 1219.76 146.09 1220.18 146.301C1220.6 146.511 1220.96 146.818 1221.24 147.197L1230.63 159.949C1230.93 160.361 1231.12 160.849 1231.16 161.36C1231.2 161.87 1231.1 162.382 1230.87 162.839C1230.64 163.296 1230.29 163.68 1229.85 163.948C1229.42 164.216 1228.91 164.358 1228.4 164.358H1212.37C1211.6 164.358 1210.84 164.145 1210.18 163.741C1209.52 163.338 1208.98 162.76 1208.62 162.071C1208.27 161.382 1208.11 160.609 1208.17 159.836C1208.23 159.063 1208.49 158.321 1208.94 157.691Z" fill="#1C85E8"/>
<path d="M1229.12 155.036L1234.69 162.833C1235.03 163.305 1235.47 163.689 1235.99 163.954C1236.5 164.22 1237.07 164.358 1237.65 164.358H1239.88C1240.9 164.358 1241.91 164.089 1242.8 163.578C1243.68 163.067 1244.42 162.333 1244.94 161.447C1245.45 160.561 1245.73 159.556 1245.73 158.532C1245.73 157.508 1245.47 156.5 1244.96 155.61L1237.13 141.863C1236.92 141.497 1236.62 141.197 1236.25 140.994C1235.88 140.792 1235.46 140.695 1235.04 140.716C1234.62 140.736 1234.22 140.872 1233.87 141.109C1233.52 141.346 1233.25 141.674 1233.08 142.058L1228.78 151.64C1228.53 152.186 1228.43 152.787 1228.49 153.383C1228.55 153.979 1228.77 154.549 1229.12 155.036Z" fill="#1C85E8"/>
<path d="M1221.51 137.662C1224.09 137.662 1226.18 135.573 1226.18 132.996C1226.18 130.419 1224.09 128.33 1221.51 128.33C1218.93 128.33 1216.84 130.419 1216.84 132.996C1216.84 135.573 1218.93 137.662 1221.51 137.662Z" fill="url(#paint4_linear_731_780)"/>
<g filter="url(#filter1_d_731_780)">
<path opacity="0.7" d="M1536.49 424.377C1514.6 443.045 1456.87 485.61 1383.55 487.643C1382.05 487.688 1380.63 488.316 1379.59 489.394C1378.54 490.47 1377.96 491.913 1377.96 493.413V609.58C1377.96 611.062 1378.53 612.488 1379.55 613.561C1380.58 614.635 1381.97 615.275 1383.45 615.348C1405.49 616.445 1489.08 616.318 1544.47 557.018C1545.46 555.953 1546 554.553 1546 553.101V428.776C1546 427.674 1545.69 426.594 1545.09 425.665C1544.5 424.736 1543.65 423.996 1542.65 423.533C1541.65 423.07 1540.54 422.904 1539.44 423.054C1538.35 423.203 1537.33 423.662 1536.49 424.377Z" fill="#FEBB94"/>
<path d="M1528.18 458.61C1528.18 458.61 1510.91 475.394 1487.3 485.82" stroke="white" stroke-width="4.62646" stroke-miterlimit="10" stroke-linecap="round"/>
<path opacity="0.4" d="M1528.18 478.958C1528.18 478.958 1504.14 501.381 1472.87 509.707" stroke="white" stroke-width="4.62646" stroke-miterlimit="10" stroke-linecap="round"/>
<path d="M1531.76 553.363V504.841L1514.75 517.014V566.709L1531.76 553.363Z" fill="white"/>
<path d="M1503.05 572.97V538.397L1486.04 548.571V582.747L1503.05 572.97Z" fill="white"/>
<path d="M1430.31 600.034V565.462L1447.32 563.133V597.31L1430.31 600.034Z" fill="white"/>
<path d="M1402.36 601.514V540.984H1419.38V601.119L1402.36 601.514Z" fill="white"/>
<path d="M1475.18 588.117V572.311L1458.17 577.095V594.278L1475.18 588.117Z" fill="white"/>
</g>
<defs>
<filter id="filter0_d_731_780" x="85.2529" y="106.014" width="259.747" height="178.077" filterUnits="userSpaceOnUse" color-interpolation-filters="sRGB">
<feFlood flood-opacity="0" result="BackgroundImageFix"/>
<feColorMatrix in="SourceAlpha" type="matrix" values="0 0 0 0 0 0 0 0 0 0 0 0 0 0 0 0 0 0 127 0" result="hardAlpha"/>
<feOffset dy="4"/>
<feGaussianBlur stdDeviation="2"/>
<feComposite in2="hardAlpha" operator="out"/>
<feColorMatrix type="matrix" values="0 0 0 0 0 0 0 0 0 0 0 0 0 0 0 0 0 0 0.25 0"/>
<feBlend mode="normal" in2="BackgroundImageFix" result="effect1_dropShadow_731_780"/>
<feBlend mode="normal" in="SourceGraphic" in2="effect1_dropShadow_731_780" result="shape"/>
</filter>
<filter id="filter1_d_731_780" x="1326" y="387" width="272" height="272" filterUnits="userSpaceOnUse" color-interpolation-filters="sRGB">
<feFlood flood-opacity="0" result="BackgroundImageFix"/>
<feColorMatrix in="SourceAlpha" type="matrix" values="0 0 0 0 0 0 0 0 0 0 0 0 0 0 0 0 0 0 127 0" result="hardAlpha"/>
<feOffset dy="4"/>
<feGaussianBlur stdDeviation="2"/>
<feComposite in2="hardAlpha" operator="out"/>
<feColorMatrix type="matrix" values="0 0 0 0 0 0 0 0 0 0 0 0 0 0 0 0 0 0 0.25 0"/>
<feBlend mode="normal" in2="BackgroundImageFix" result="effect1_dropShadow_731_780"/>
<feBlend mode="normal" in="SourceGraphic" in2="effect1_dropShadow_731_780" result="shape"/>
</filter>
<linearGradient id="paint0_linear_731_780" x1="883.549" y1="484.475" x2="967.782" y2="922.928" gradientUnits="userSpaceOnUse">
<stop stop-color="white"/>
<stop offset="1" stop-color="#94B9FF"/>
</linearGradient>
<linearGradient id="paint1_linear_731_780" x1="558.549" y1="474.05" x2="573.572" y2="657.847" gradientUnits="userSpaceOnUse">
<stop stop-color="white"/>
<stop offset="1" stop-color="#94B9FF"/>
</linearGradient>
<linearGradient id="paint2_linear_731_780" x1="208.774" y1="105.61" x2="235.373" y2="468.498" gradientUnits="userSpaceOnUse">
<stop stop-color="white"/>
<stop offset="1" stop-color="#94B9FF"/>
</linearGradient>
<linearGradient id="paint3_linear_731_780" x1="1250.79" y1="89.1" x2="1261.09" y2="258.927" gradientUnits="userSpaceOnUse">
<stop stop-color="white"/>
<stop offset="1" stop-color="#94B9FF"/>
</linearGradient>
<linearGradient id="paint4_linear_731_780" x1="1221.28" y1="128.308" x2="1223.42" y2="148.094" gradientUnits="userSpaceOnUse">
<stop stop-color="white"/>
<stop offset="1" stop-color="#94B9FF"/>
</linearGradient>
</defs>
</svg>
