<svg width="86" height="37" viewBox="0 0 86 37" fill="none" xmlns="http://www.w3.org/2000/svg">
<path d="M12.3553 16.3636H5.21733V0H0V37H17.5727V0H12.3553V16.3636ZM12.3553 32.7272H5.21733V20.6364H12.3553V32.7272Z" fill="#1479FF"/>
<path d="M65.6467 22.7729H60.4294V37H86V32.7272H65.6467V22.7729Z" fill="#1479FF"/>
<path d="M25.5706 0H20.3533V37H25.5706V0Z" fill="#1479FF"/>
<path d="M86 0H80.7827V20.6364H86V0Z" fill="#1479FF"/>
<path d="M30.444 20.6364H40.6207V22.7728H30.444V37H56.0147V22.7728H45.838V20.6364H56.0147V16.3636H30.444V20.6364ZM50.7974 27.0692V32.7271H35.6614V27.0692H50.7974Z" fill="#1479FF"/>
<path d="M30.444 0V4.27284H36.1774V9.93084H30.444V14.2037H56.0147V9.93084H50.2814V4.27284H56.0147V0H30.444ZM45.064 9.93084H41.3947V4.27284H45.064V9.93084Z" fill="#1479FF"/>
<path d="M65.6467 20.6364H72.7847C75.68 20.6364 78.002 18.7113 78.002 16.3636V4.27284C78.002 1.90165 75.6514 0 72.7847 0H65.6467C62.7514 0 60.4294 1.92513 60.4294 4.27284V16.3636C60.4294 18.7348 62.78 20.6364 65.6467 20.6364ZM65.6467 4.27284H72.7847V16.3636H65.6467V4.27284Z" fill="#1479FF"/>
</svg>
