<svg width="125" height="21" viewBox="0 0 125 21" fill="none" xmlns="http://www.w3.org/2000/svg">
<path d="M6.74374 21C8.1354 21 9.51343 20.7284 10.7992 20.2007C12.0849 19.6731 13.2531 18.8996 14.2372 17.9246C15.2212 16.9496 16.0018 15.7921 16.5344 14.5182C17.0669 13.2443 17.341 11.8789 17.341 10.5H6.74374V21Z" fill="url(#paint0_linear_873_4949)"/>
<path d="M0 0H5.78035V9.54545H0V0Z" fill="url(#paint1_linear_873_4949)"/>
<path d="M6.74374 0H9.63391C12.2942 0 14.4509 2.13682 14.4509 4.77273C14.4509 7.40863 12.2942 9.54545 9.63391 9.54545H6.74374V0Z" fill="url(#paint2_linear_873_4949)"/>
<path d="M0 13.3636C0 11.7821 1.29397 10.5 2.89017 10.5C4.48637 10.5 5.78035 11.7821 5.78035 13.3636V18.1364C5.78035 19.7179 4.48637 21 2.89017 21C1.29397 21 0 19.7179 0 18.1364V13.3636Z" fill="url(#paint3_linear_873_4949)"/>
<path d="M22.3988 1.95624H24.2917V5.90442C25.5725 4.5914 27.39 3.77076 29.3865 3.77076C33.2758 3.77076 36.4023 6.79801 36.4023 10.5365C36.4023 14.2749 33.2758 17.3295 29.3865 17.3295C25.4971 17.3295 22.3988 14.2841 22.3988 10.5365V1.95624ZM24.2917 10.5365C24.2917 13.2628 26.5707 15.4968 29.3865 15.4968C32.2022 15.4968 34.5095 13.2628 34.5095 10.5365C34.5095 7.81013 32.2305 5.60352 29.3865 5.60352C26.5424 5.60352 24.2917 7.81013 24.2917 10.5365Z" fill="#005EDA"/>
<path d="M39.4535 4.2905C38.7378 4.2905 38.1728 3.74341 38.1728 3.05042C38.1728 2.35744 38.7378 1.81034 39.4535 1.81034C40.1692 1.81034 40.7343 2.37567 40.7343 3.05042C40.7343 3.72517 40.1692 4.2905 39.4535 4.2905ZM40.4047 5.80412V17.211H38.5118V5.80412H40.4047Z" fill="#005EDA"/>
<path d="M42.5047 19.1897V10.5365C42.5047 6.78889 45.6312 3.77076 49.4923 3.77076C53.3534 3.77076 56.5082 6.79801 56.5082 10.5365C56.5082 14.2749 53.3817 17.3295 49.4923 17.3295C47.4959 17.3295 45.6783 16.5089 44.3976 15.1959V19.1897H42.5047ZM49.4923 15.4968C52.3363 15.4968 54.6153 13.2628 54.6153 10.5365C54.6153 7.81013 52.3363 5.60352 49.4923 5.60352C46.6483 5.60352 44.3976 7.81013 44.3976 10.5365C44.3976 13.2628 46.6766 15.4968 49.4923 15.4968Z" fill="#005EDA"/>
<path d="M58.6177 3.91665H60.5105V10.5365C60.5105 13.2628 62.7895 15.4968 65.6053 15.4968C68.421 15.4968 70.7 13.2628 70.7 10.5365V3.91665H72.5929V10.5821C72.5929 14.3296 69.4664 17.3295 65.6053 17.3295C61.7442 17.3295 58.6177 14.2841 58.6177 10.5365V3.91665Z" fill="#005EDA"/>
<path d="M91.0319 17.211V8.57606C91.0319 6.88919 89.6193 5.54881 87.8865 5.54881C86.1538 5.54881 84.7412 6.91654 84.7412 8.59429V17.2019H82.8483V8.57606C82.8483 6.88919 81.4357 5.54881 79.7029 5.54881C77.9702 5.54881 76.5764 6.91654 76.5764 8.59429V17.2019H74.6835V8.57606C74.6835 5.87707 76.9343 3.71605 79.7029 3.71605C81.3886 3.71605 82.8766 4.50934 83.7994 5.74941C84.7223 4.50934 86.2103 3.71605 87.896 3.71605C90.6835 3.71605 92.9436 5.8953 92.9436 8.60341V17.211H91.0319Z" fill="#005EDA"/>
<path d="M95.0342 11.5759V9.74319H104.922V11.5759H95.0342Z" fill="#005EDA"/>
<path d="M107.974 4.2905C107.258 4.2905 106.693 3.74341 106.693 3.05042C106.693 2.35744 107.258 1.81034 107.974 1.81034C108.689 1.81034 109.254 2.37567 109.254 3.05042C109.254 3.72517 108.689 4.2905 107.974 4.2905ZM108.925 5.80412V17.211H107.032V5.80412H108.925Z" fill="#005EDA"/>
<path d="M125 17.211H123.107V10.5912C123.107 7.86484 120.828 5.63088 118.012 5.63088C115.197 5.63088 112.918 7.86484 112.918 10.5912V17.211H111.025V10.5456C111.025 6.79801 114.151 3.79812 118.012 3.79812C121.873 3.79812 125 6.8436 125 10.5912V17.211Z" fill="#005EDA"/>
<defs>
<linearGradient id="paint0_linear_873_4949" x1="0" y1="0" x2="4.03129" y2="34.9522" gradientUnits="userSpaceOnUse">
<stop stop-color="#006EFF"/>
<stop offset="1" stop-color="#B1D3FF" stop-opacity="0.24"/>
</linearGradient>
<linearGradient id="paint1_linear_873_4949" x1="0" y1="0" x2="4.03129" y2="34.9522" gradientUnits="userSpaceOnUse">
<stop stop-color="#006EFF"/>
<stop offset="1" stop-color="#B1D3FF" stop-opacity="0.24"/>
</linearGradient>
<linearGradient id="paint2_linear_873_4949" x1="0" y1="0" x2="4.03129" y2="34.9522" gradientUnits="userSpaceOnUse">
<stop stop-color="#006EFF"/>
<stop offset="1" stop-color="#B1D3FF" stop-opacity="0.24"/>
</linearGradient>
<linearGradient id="paint3_linear_873_4949" x1="0" y1="0" x2="4.03129" y2="34.9522" gradientUnits="userSpaceOnUse">
<stop stop-color="#006EFF"/>
<stop offset="1" stop-color="#B1D3FF" stop-opacity="0.24"/>
</linearGradient>
</defs>
</svg>
