<svg width="114" height="26" viewBox="0 0 114 26" fill="none" xmlns="http://www.w3.org/2000/svg">
<path d="M0.244141 20H8.77539C12.7871 20 15.2246 17.8164 15.2246 14.8203C15.2246 12.1924 13.3076 10.5039 10.9844 10.4277V10.25C13.0791 9.81836 14.501 8.26953 14.5137 6.23828C14.501 3.43262 12.3047 1.61719 8.11523 1.61719H0.244141V20ZM5.06836 16.1152V12.1035H7.60742C9.15625 12.1035 10.1211 12.8779 10.1211 14.2109C10.1211 15.4551 9.27051 16.1279 7.53125 16.1152H5.06836ZM5.06836 9.08203V5.42578H7.30273C8.61035 5.42578 9.53711 6.08594 9.53711 7.25391C9.53711 8.42188 8.58496 9.08203 7.22656 9.08203H5.06836ZM17.1289 20H21.9277V6.21289H17.1289V20ZM17.1289 2.50586C17.1162 3.7373 18.1953 4.72754 19.5156 4.71484C20.8232 4.72754 21.9023 3.7373 21.9023 2.50586C21.9023 1.28711 20.8232 0.296875 19.5156 0.296875C18.1953 0.296875 17.1162 1.28711 17.1289 2.50586ZM24.4922 25.1797H29.291V17.7402H29.3672C29.9258 19.1113 31.2334 20.1904 33.2012 20.1777C36.1846 20.1904 38.6602 17.8672 38.6602 13.1191C38.6602 8.15527 36.0195 6.03516 33.252 6.03516C31.1572 6.03516 29.8877 7.24121 29.3672 8.59961H29.2402V6.21289H24.4922V25.1797ZM29.1895 13.0938C29.1768 10.999 30.0273 9.72949 31.4746 9.74219C32.9092 9.72949 33.7217 11.0117 33.7344 13.0938C33.7217 15.2012 32.8965 16.4834 31.4746 16.4961C30.04 16.4834 29.1768 15.1758 29.1895 13.0938ZM49.7051 13.9824C49.7178 15.417 48.8672 16.2676 47.623 16.2676C46.3408 16.2676 45.5918 15.417 45.5918 14.0078V6.21289H40.793V14.998C40.793 18.0449 42.6973 20.1777 45.5664 20.1777C47.6357 20.1777 49.1973 19.1367 49.8066 17.3848H49.959V20H54.5039V6.21289H49.7051V13.9824ZM57.0938 20H61.8926V11.9258C61.8799 10.6816 62.5527 9.90723 63.6191 9.89453C64.6729 9.90723 65.3584 10.6562 65.3711 11.875V20H69.9668V11.9004C69.9541 10.6689 70.6143 9.90723 71.6934 9.89453C72.7344 9.90723 73.4326 10.6436 73.4453 11.9004V20H78.2441V10.707C78.2314 7.85059 76.4287 6.03516 73.8008 6.03516C71.7568 6.03516 70.1191 7.12695 69.6367 8.80273H69.4844C69.1797 7.12695 67.6562 6.03516 65.7266 6.03516C63.8223 6.03516 62.3623 7.10156 61.791 8.80273H61.6387V6.21289H57.0938V20ZM89.7207 10.834H81.1387V14.4648H89.7207V10.834ZM97.4902 1.61719H92.666V20H97.4902V1.61719ZM104.828 12.2051C104.828 10.7959 105.641 9.93262 106.91 9.94531C108.205 9.93262 108.967 10.7832 108.941 12.2051V20H113.74V11.2148C113.766 8.18066 111.861 6.03516 108.941 6.03516C106.91 6.03516 105.323 7.08887 104.727 8.80273H104.574V6.21289H100.029V20H104.828V12.2051Z" fill="#1479FF"/>
</svg>
