<svg width="16" height="16" viewBox="0 0 16 16" fill="none" xmlns="http://www.w3.org/2000/svg">
<path d="M7.25 10.25H5C3.60218 10.25 2.90326 10.25 2.35195 10.4784C1.61687 10.7828 1.03284 11.3669 0.728361 12.1019C0.5 12.6533 0.5 13.3522 0.5 14.75M10.625 1.46807C11.7244 1.91311 12.5 2.99098 12.5 4.25M7.9999 15.125L9.51872 14.8213C9.65115 14.7948 9.71736 14.7815 9.7791 14.7573C9.83391 14.7358 9.88599 14.7079 9.93427 14.6743C9.98867 14.6363 10.0364 14.5886 10.1319 14.4931L15.125 9.50004C15.5393 9.08581 15.5393 8.4142 15.125 7.99998C14.7108 7.58577 14.0392 7.58578 13.625 8L8.63189 12.9931C8.53641 13.0886 8.48866 13.1363 8.45073 13.1907C8.41705 13.239 8.38918 13.2911 8.36768 13.3459C8.34347 13.4076 8.33022 13.4738 8.30373 13.6062L7.9999 15.125ZM9.125 4.25C9.125 5.90685 7.78185 7.25 6.125 7.25C4.46815 7.25 3.125 5.90685 3.125 4.25C3.125 2.59315 4.46815 1.25 6.125 1.25C7.78185 1.25 9.125 2.59315 9.125 4.25Z" stroke="#5F5F5F" stroke-linecap="round" stroke-linejoin="round"/>
</svg>
