<svg width="16" height="13" viewBox="0 0 16 13" fill="none" xmlns="http://www.w3.org/2000/svg">
<path d="M11 10.5L12.5 12L15.5 9M15.5 4.5H0.5M15.5 6V3.15C15.5 2.30992 15.5 1.88988 15.3365 1.56902C15.1927 1.28677 14.9632 1.0573 14.681 0.913492C14.3601 0.75 13.9401 0.75 13.1 0.75H2.9C2.05992 0.75 1.63988 0.75 1.31901 0.91349C1.03677 1.0573 0.807301 1.28677 0.66349 1.56901C0.5 1.88988 0.5 2.30992 0.5 3.15V8.85C0.5 9.69008 0.5 10.1101 0.66349 10.431C0.8073 10.7132 1.03677 10.9427 1.31901 11.0865C1.63988 11.25 2.05992 11.25 2.9 11.25H8" stroke="#5F5F5F" stroke-linecap="round" stroke-linejoin="round"/>
</svg>
