<svg width="16" height="16" viewBox="0 0 16 16" fill="none" xmlns="http://www.w3.org/2000/svg">
<path d="M6.04628 13.5283L6.48462 14.5142C6.61492 14.8076 6.82757 15.057 7.09678 15.232C7.366 15.4069 7.6802 15.5001 8.00128 15.5C8.32237 15.5001 8.63657 15.4069 8.90578 15.232C9.17499 15.057 9.38764 14.8076 9.51795 14.5142L9.95628 13.5283C10.1123 13.1785 10.3748 12.8869 10.7063 12.695C11.0399 12.5026 11.4258 12.4206 11.8088 12.4608L12.8813 12.575C13.2005 12.6088 13.5227 12.5492 13.8088 12.4035C14.0949 12.2578 14.3325 12.0322 14.4929 11.7542C14.6536 11.4763 14.7301 11.1577 14.7132 10.8372C14.6964 10.5166 14.5869 10.2079 14.3979 9.94833L13.7629 9.07583C13.5368 8.76285 13.416 8.38611 13.4179 8C13.4179 7.61494 13.5398 7.23976 13.7663 6.92833L14.4013 6.05583C14.5902 5.79632 14.6997 5.48755 14.7166 5.16701C14.7334 4.84646 14.6569 4.52791 14.4963 4.25C14.3359 3.97193 14.0982 3.74637 13.8121 3.60067C13.5261 3.45497 13.2039 3.3954 12.8846 3.42917L11.8121 3.54333C11.4291 3.58356 11.0432 3.50159 10.7096 3.30917C10.3775 3.11619 10.1149 2.82302 9.95962 2.47167L9.51795 1.48583C9.38764 1.19238 9.17499 0.943036 8.90578 0.768049C8.63657 0.593062 8.32237 0.499948 8.00128 0.5C7.6802 0.499948 7.366 0.593062 7.09678 0.768049C6.82757 0.943036 6.61492 1.19238 6.48462 1.48583L6.04628 2.47167C5.89098 2.82302 5.62844 3.11619 5.29628 3.30917C4.96269 3.50159 4.57678 3.58356 4.19378 3.54333L3.11795 3.42917C2.7987 3.3954 2.4765 3.45497 2.19043 3.60067C1.90437 3.74637 1.66671 3.97193 1.50628 4.25C1.34565 4.52791 1.26912 4.84646 1.28598 5.16701C1.30285 5.48755 1.41237 5.79632 1.60128 6.05583L2.23628 6.92833C2.46274 7.23976 2.58468 7.61494 2.58461 8C2.58468 8.38506 2.46274 8.76024 2.23628 9.07167L1.60128 9.94417C1.41237 10.2037 1.30285 10.5124 1.28598 10.833C1.26912 11.1535 1.34565 11.4721 1.50628 11.75C1.66687 12.0279 1.90455 12.2534 2.19058 12.399C2.47661 12.5447 2.79872 12.6044 3.11795 12.5708L4.19045 12.4567C4.57345 12.4164 4.95936 12.4984 5.29295 12.6908C5.62634 12.8833 5.89011 13.1765 6.04628 13.5283Z" stroke="#5F5F5F" stroke-linecap="round" stroke-linejoin="round"/>
<path d="M7.99994 10.25C9.24258 10.25 10.2499 9.24264 10.2499 8C10.2499 6.75736 9.24258 5.75 7.99994 5.75C6.7573 5.75 5.74994 6.75736 5.74994 8C5.74994 9.24264 6.7573 10.25 7.99994 10.25Z" stroke="#5F5F5F" stroke-linecap="round" stroke-linejoin="round"/>
</svg>
