<svg width="18" height="18" viewBox="0 0 18 18" fill="none" xmlns="http://www.w3.org/2000/svg">
<path d="M9 5.66667V12.3333M5.66667 9H12.3333M5.5 16.5H12.5C13.9001 16.5 14.6002 16.5 15.135 16.2275C15.6054 15.9878 15.9878 15.6054 16.2275 15.135C16.5 14.6002 16.5 13.9001 16.5 12.5V5.5C16.5 4.09987 16.5 3.3998 16.2275 2.86502C15.9878 2.39462 15.6054 2.01217 15.135 1.77248C14.6002 1.5 13.9001 1.5 12.5 1.5H5.5C4.09987 1.5 3.3998 1.5 2.86502 1.77248C2.39462 2.01217 2.01217 2.39462 1.77248 2.86502C1.5 3.3998 1.5 4.09987 1.5 5.5V12.5C1.5 13.9001 1.5 14.6002 1.77248 15.135C2.01217 15.6054 2.39462 15.9878 2.86502 16.2275C3.3998 16.5 4.09987 16.5 5.5 16.5Z" stroke="#4E9AFF" stroke-width="1.5" stroke-linecap="round" stroke-linejoin="round"/>
</svg>
