<svg width="124" height="112" viewBox="0 0 124 112" fill="none" xmlns="http://www.w3.org/2000/svg">
<path d="M106.583 67V83.75H123.333V94.9167H106.583V111.667H95.4167V94.9167H78.6667V83.75H95.4167V67H106.583ZM106.628 0C109.688 0 112.167 2.48458 112.167 5.54425V57.7428C108.58 56.4759 104.804 55.8302 101 55.8333V11.1667H11.6667L11.6723 89.3333L63.5526 37.4474C64.5127 36.4842 65.7917 35.9049 67.1489 35.8185C68.5061 35.7322 69.8482 36.1447 70.9226 36.9784L71.4419 37.453L91.2404 57.2738C86.9113 58.593 82.8942 60.7752 79.4313 63.6889C75.9684 66.6025 73.1315 70.1873 71.0915 74.2271C69.0516 78.2668 67.8508 82.6779 67.5618 87.1942C67.2727 91.7106 67.9013 96.2387 69.4095 100.506L6.03871 100.5C4.56925 100.499 3.16049 99.9137 2.12195 98.8741C1.0834 97.8346 0.500045 96.4252 0.500046 94.9557V5.54425C0.510264 4.07794 1.09691 2.67451 2.13324 1.63713C3.16958 0.59975 4.57242 0.0116951 6.03871 0H106.628ZM34 22.3333C36.9616 22.3333 39.8019 23.5098 41.8961 25.604C43.9902 27.6981 45.1667 30.5384 45.1667 33.5C45.1667 36.4616 43.9902 39.3019 41.8961 41.396C39.8019 43.4902 36.9616 44.6667 34 44.6667C31.0385 44.6667 28.1982 43.4902 26.104 41.396C24.0099 39.3019 22.8334 36.4616 22.8334 33.5C22.8334 30.5384 24.0099 27.6981 26.104 25.604C28.1982 23.5098 31.0385 22.3333 34 22.3333Z" fill="#CFCFCF"/>
</svg>
