<svg width="22" height="26" viewBox="0 0 22 26" fill="none" xmlns="http://www.w3.org/2000/svg">
<path d="M14.4997 21.1666C14.4997 23.0996 12.9327 24.6666 10.9997 24.6666C9.06668 24.6666 7.49967 23.0996 7.49967 21.1666M13.0956 6.2783C13.6037 5.75339 13.9163 5.0382 13.9163 4.24998C13.9163 2.63915 12.6105 1.33331 10.9997 1.33331C9.38884 1.33331 8.08301 2.63915 8.08301 4.24998C8.08301 5.0382 8.39568 5.75339 8.90375 6.2783M17.9997 12.0666C17.9997 10.4577 17.2622 8.91459 15.9494 7.77686C14.6367 6.63914 12.8562 5.99998 10.9997 5.99998C9.14316 5.99998 7.36268 6.63914 6.04993 7.77686C4.73717 8.91459 3.99967 10.4577 3.99967 12.0666C3.99967 14.7287 3.33949 16.6757 2.51575 18.0688C1.5769 19.6565 1.10748 20.4504 1.12602 20.6401C1.14722 20.857 1.18628 20.9255 1.36224 21.0542C1.51604 21.1666 2.28877 21.1666 3.83423 21.1666H18.1651C19.7106 21.1666 20.4833 21.1666 20.6371 21.0542C20.8131 20.9255 20.8521 20.857 20.8733 20.6401C20.8919 20.4504 20.4224 19.6565 19.4836 18.0688C18.6599 16.6757 17.9997 14.7288 17.9997 12.0666Z" stroke="white" stroke-width="2" stroke-linecap="round" stroke-linejoin="round"/>
</svg>
