<svg width="50" height="50" viewBox="0 0 50 50" fill="none" xmlns="http://www.w3.org/2000/svg">
<rect x="0.75" y="0.75" width="48.5" height="48.5" rx="24.25" fill="white"/>
<path d="M19.75 25H19.7617M25 25H25.0117M30.25 25H30.2617M25 35.5C30.799 35.5 35.5 30.799 35.5 25C35.5 19.201 30.799 14.5 25 14.5C19.201 14.5 14.5 19.201 14.5 25C14.5 26.3967 14.7727 27.7296 15.2677 28.9486C15.3625 29.1819 15.4099 29.2985 15.431 29.3928C15.4517 29.4851 15.4592 29.5533 15.4592 29.6478C15.4593 29.7445 15.4417 29.8497 15.4066 30.0602L14.7148 34.2111C14.6424 34.6458 14.6061 34.8631 14.6736 35.0203C14.7326 35.1578 14.8422 35.2674 14.9797 35.3264C15.1369 35.3939 15.3542 35.3576 15.7889 35.2852L19.9398 34.5934C20.1503 34.5583 20.2555 34.5407 20.3522 34.5408C20.4467 34.5408 20.5149 34.5483 20.6072 34.569C20.7015 34.5901 20.8181 34.6375 21.0514 34.7323C22.2704 35.2273 23.6033 35.5 25 35.5ZM20.3333 25C20.3333 25.3222 20.0722 25.5833 19.75 25.5833C19.4278 25.5833 19.1667 25.3222 19.1667 25C19.1667 24.6778 19.4278 24.4167 19.75 24.4167C20.0722 24.4167 20.3333 24.6778 20.3333 25ZM25.5833 25C25.5833 25.3222 25.3222 25.5833 25 25.5833C24.6778 25.5833 24.4167 25.3222 24.4167 25C24.4167 24.6778 24.6778 24.4167 25 24.4167C25.3222 24.4167 25.5833 24.6778 25.5833 25ZM30.8333 25C30.8333 25.3222 30.5722 25.5833 30.25 25.5833C29.9278 25.5833 29.6667 25.3222 29.6667 25C29.6667 24.6778 29.9278 24.4167 30.25 24.4167C30.5722 24.4167 30.8333 24.6778 30.8333 25Z" stroke="#1479FF" stroke-width="2" stroke-linecap="round" stroke-linejoin="round"/>
<rect x="0.75" y="0.75" width="48.5" height="48.5" rx="24.25" stroke="#1479FF" stroke-width="1.5"/>
</svg>
