<svg width="57" height="60" viewBox="0 0 57 60" fill="none" xmlns="http://www.w3.org/2000/svg">
<path d="M26.4444 60C30.4571 60 34.4304 59.224 38.1376 57.7164C41.8447 56.2087 45.2131 53.999 48.0505 51.2132C50.8878 48.4274 53.1385 45.1203 54.6741 41.4805C56.2097 37.8407 57 33.9397 57 30H26.4444V60Z" fill="#4E9AFF"/>
<path d="M7 0H23.6667V27.2727H7V0Z" fill="#005EDA"/>
<path d="M26.4444 0H34.7778C42.4484 0 48.6667 6.10521 48.6667 13.6364C48.6667 21.1675 42.4484 27.2727 34.7778 27.2727H26.4444V0Z" fill="#1479FF"/>
<path d="M7 38.1818C7 33.6631 10.731 30 15.3333 30C19.9357 30 23.6667 33.6631 23.6667 38.1818V51.8182C23.6667 56.3369 19.9357 60 15.3333 60C10.731 60 7 56.3369 7 51.8182V38.1818Z" fill="#87BBFF"/>
</svg>
