<svg width="380" height="380" viewBox="0 0 380 380" fill="none" xmlns="http://www.w3.org/2000/svg">
<rect width="380" height="380" rx="8" fill="#F5F5F5"/>
<path d="M155 235C152.25 235 149.895 234.022 147.935 232.065C145.978 230.105 145 227.75 145 225V155C145 152.25 145.978 149.895 147.935 147.935C149.895 145.978 152.25 145 155 145H225C227.75 145 230.105 145.978 232.065 147.935C234.022 149.895 235 152.25 235 155V225C235 227.75 234.022 230.105 232.065 232.065C230.105 234.022 227.75 235 225 235H155ZM160 215H220L201.25 190L186.25 210L175 195L160 215Z" fill="#CFCFCF"/>
</svg>
