<svg width="94" height="114" viewBox="0 0 94 114" fill="none" xmlns="http://www.w3.org/2000/svg">
<path d="M50.1714 39.6297C50.9514 39.6297 51.7238 39.4761 52.4445 39.1776C53.1651 38.8791 53.8199 38.4416 54.3715 37.89C54.9231 37.3384 55.3606 36.6836 55.6591 35.963C55.9576 35.2423 56.1112 34.4699 56.1112 33.6899C56.1112 32.9098 55.9576 32.1374 55.6591 31.4168C55.3606 30.6961 54.9231 30.0413 54.3715 29.4897C53.8199 28.9382 53.1651 28.5007 52.4445 28.2021C51.7238 27.9036 50.9514 27.75 50.1714 27.75C48.596 27.75 47.0852 28.3758 45.9713 29.4897C44.8573 30.6037 44.2315 32.1145 44.2315 33.6899C44.2315 35.2652 44.8573 36.776 45.9713 37.89C47.0852 39.0039 48.596 39.6297 50.1714 39.6297Z" fill="#CFCFCF"/>
<path d="M79.8628 67.3489C79.8628 69.4494 79.0284 71.4638 77.5431 72.949C76.0579 74.4343 74.0434 75.2687 71.943 75.2687H40.2637C38.1632 75.2687 36.1488 74.4343 34.6635 72.949C33.1783 71.4638 32.3439 69.4494 32.3439 67.3489V19.83C32.3439 17.7295 33.1783 15.7151 34.6635 14.2298C36.1488 12.7446 38.1632 11.9102 40.2637 11.9102H62.0432L79.8628 29.7297V55.4692V67.3489ZM40.2637 15.8701C39.2135 15.8701 38.2062 16.2873 37.4636 17.0299C36.721 17.7725 36.3038 18.7797 36.3038 19.83V59.4291L45.1106 50.6222C45.4227 50.3109 45.8298 50.1126 46.2674 50.0588C46.7049 50.005 47.1479 50.0988 47.5262 50.3252L56.1033 55.4692L64.6449 43.5102C64.812 43.2765 65.028 43.0819 65.2779 42.9401C65.5277 42.7982 65.8055 42.7124 66.0919 42.6887C66.3782 42.665 66.6663 42.7038 66.9361 42.8026C67.206 42.9014 67.451 43.0577 67.6544 43.2608L75.9029 51.5093V29.7297H67.9831C66.4077 29.7297 64.8969 29.1039 63.7829 27.99C62.669 26.8761 62.0432 25.3652 62.0432 23.7899V15.8701H40.2637Z" fill="#CFCFCF"/>
<path d="M39.499 63.7754C42.9776 61.6084 47.4186 64.5027 46.8124 68.5408L40.7486 108.933C40.0972 113.272 34.3975 114.512 31.9726 110.84L24.1165 98.9546C23.2862 97.7051 21.9857 96.8358 20.5048 96.5548L6.73739 93.9274C2.44653 93.1038 1.38028 87.4809 5.08193 85.1788L39.499 63.7754Z" fill="#005EDA"/>
<path d="M22.6916 40.4954V16.7359C22.6916 13.0929 23.891 9.59915 26.0261 7.02316C28.1611 4.44717 31.0569 3 34.0763 3H79.6153C82.6347 3 85.5304 4.44717 87.6655 7.02316C89.8005 9.59915 91 13.0929 91 16.7359V71.6797C91 75.3227 89.8005 78.8165 87.6655 81.3924C85.5304 83.9684 82.6347 85.4156 79.6153 85.4156H70.2105" stroke="#E3E3E3" stroke-width="5" stroke-linecap="round" stroke-linejoin="round"/>
</svg>
