<svg width="127" height="127" viewBox="0 0 127 127" fill="none" xmlns="http://www.w3.org/2000/svg">
<path fill-rule="evenodd" clip-rule="evenodd" d="M0.583252 19.4585C0.583252 14.4525 2.57186 9.65161 6.11161 6.11186C9.65136 2.57211 14.4523 0.583496 19.4583 0.583496H107.542C112.548 0.583496 117.348 2.57211 120.888 6.11186C124.428 9.65161 126.417 14.4525 126.417 19.4585V60.3543C126.416 60.885 126.348 61.4135 126.215 61.9272C126.348 62.441 126.416 62.9695 126.417 63.5002V107.542C126.417 112.548 124.428 117.349 120.888 120.888C117.348 124.428 112.548 126.417 107.542 126.417H19.4583C14.4523 126.417 9.65136 124.428 6.11161 120.888C2.57186 117.349 0.583252 112.548 0.583252 107.542V88.6668C0.583757 88.1361 0.651406 87.6076 0.784586 87.0939C0.651538 86.5802 0.583892 86.0517 0.583252 85.521V19.4585ZM19.4205 81.3056C17.231 81.3433 15.1422 81.444 13.1666 81.595V19.4585C13.1666 17.7898 13.8295 16.1895 15.0094 15.0096C16.1893 13.8297 17.7896 13.1668 19.4583 13.1668H107.542C109.21 13.1668 110.811 13.8297 111.99 15.0096C113.17 16.1895 113.833 17.7898 113.833 19.4585V57.3092C86.798 58.1837 67.2749 64.6956 53.5591 73.8122C58.756 75.6557 64.5695 78.2793 70.2698 81.7145C79.0718 86.9995 88.0185 94.4237 94.0397 104.258C94.471 104.962 94.7592 105.745 94.888 106.561C95.0167 107.378 94.9835 108.211 94.7901 109.014C94.5967 109.818 94.247 110.575 93.7609 111.243C93.2748 111.911 92.6619 112.477 91.9571 112.909C91.2524 113.34 90.4695 113.628 89.6533 113.757C88.8372 113.886 88.0036 113.852 87.2003 113.659C86.397 113.466 85.6396 113.116 84.9714 112.63C84.3033 112.144 83.7374 111.531 83.3061 110.826C78.6754 103.257 71.4903 97.1228 63.7893 92.4984C56.1009 87.8804 48.2804 84.9988 42.857 83.7405C35.2171 81.9957 27.3944 81.1803 19.5589 81.3119H19.4205V81.3056ZM31.9032 28.8205C34.7075 26.8447 38.0487 25.7734 41.4791 25.7502C44.0587 25.7502 47.7896 26.4737 51.055 28.8205C54.6413 31.4001 57.2083 35.6532 57.2083 41.4793C57.2083 47.3054 54.6413 51.5523 51.055 54.1319C48.2514 56.1099 44.9101 57.1834 41.4791 57.2085C38.8995 57.2085 35.1685 56.485 31.9032 54.1319C28.3169 51.5523 25.7499 47.3117 25.7499 41.4793C25.7499 35.6532 28.3169 31.4064 31.9032 28.8205Z" fill="black"/>
</svg>
