<svg width="22" height="22" viewBox="0 0 22 22" fill="none" xmlns="http://www.w3.org/2000/svg">
<path d="M1 1L21 21Z" fill="#CFCFCF"/>
<path d="M1 1L21 21" stroke="#CFCFCF" stroke-width="2" stroke-linecap="round" stroke-linejoin="round"/>
<path d="M15.854 17.478C15.8039 17.3961 15.7525 17.3153 15.6999 17.2356L15.9088 17.4445L15.9088 17.4445L16.2649 17.8006L16.5006 18.0364M15.854 17.478L11.046 15.609C9.824 14.875 8.581 14.417 7.719 14.217M15.854 17.478C15.9226 17.59 15.9684 17.7144 15.9888 17.8442M15.854 17.478L15.9888 17.8442M16.5006 18.0364C16.498 18.1422 16.4843 18.2477 16.4594 18.3511C16.4133 18.5426 16.3299 18.7232 16.214 18.8824C16.0981 19.0417 15.952 19.1767 15.784 19.2795C15.616 19.3823 15.4293 19.451 15.2348 19.4817C15.0402 19.5124 14.8414 19.5045 14.6499 19.4584C14.4584 19.4123 14.2779 19.3289 14.1186 19.213C13.9593 19.0971 13.8243 18.951 13.7215 18.783L13.7215 18.7829C13.0406 17.67 11.9687 16.7463 10.7886 16.0377L10.7886 16.0376C9.61169 15.3307 8.41788 14.8926 7.60694 14.7043M16.5006 18.0364L18.8249 20.3609C18.5671 20.451 18.2896 20.5 18 20.5H4.00001C3.33696 20.5 2.70108 20.2366 2.23224 19.7678C1.7634 19.2989 1.5 18.663 1.5 18V15.0003M16.5006 18.0364C16.5028 17.9462 16.4969 17.8558 16.4827 17.7662C16.452 17.5717 16.3833 17.385 16.2805 17.217L16.2804 17.2169C16.2183 17.1155 16.1544 17.0157 16.0889 16.9174L19.3042 20.1332L1.5 15.0003M7.60694 14.7043C7.60719 14.7043 7.60744 14.7044 7.60769 14.7045L7.719 14.217M7.60694 14.7043C6.43215 14.4361 5.22926 14.3107 4.0244 14.3309L4.016 14.3311V14.331H3.99763M7.60694 14.7043C7.60663 14.7042 7.60631 14.7041 7.606 14.7041L7.719 14.217M7.719 14.217L3.99763 14.331M3.99763 14.331C3.99882 14.331 4 14.331 4.00119 14.3309L3.994 13.831V14.331H3.99763ZM3.99763 14.331C3.66063 14.3359 3.34072 14.3505 3.03969 14.3744L2.50001 14.4174V13.876V4.03511M3.99763 14.331L2.85338 4.00063L2.65945 4.19455L2.50001 4.03511M2.50001 4.03511V4.00095L1.86684 2.69483C1.7737 2.84668 1.69753 3.00748 1.63922 3.17432M2.50001 4.03511L1.63922 3.17432M1.63922 3.17432C1.54706 3.438 1.49949 3.71676 1.5 3.99909L1.50001 4L1.5 14.5C1.5 14.5434 1.50555 14.5847 1.51562 14.6231L1.54874 14.7492L1.516 14.8755C1.50543 14.9163 1.50006 14.9582 1.5 15.0003M1.63922 3.17432L1.5 15.0003M10.944 11.772L13.2053 14.0336C12.9156 13.8295 12.6235 13.6405 12.3334 13.4663C12.032 13.2849 11.729 13.1173 11.4281 12.9633M10.944 11.772C10.5964 11.9401 10.2662 12.1178 9.95324 12.3035C10.1453 12.3774 10.3412 12.4575 10.5399 12.5437M10.944 11.772L10.5904 12.1255L10.8453 12.3804M10.944 11.772L11.1617 12.2221C11.0545 12.274 10.949 12.3268 10.8453 12.3804M10.5399 12.5437C10.354 12.6463 10.1743 12.7518 10.0005 12.8597C10.6676 13.1296 11.3766 13.4739 12.076 13.895M10.5399 12.5437C10.8314 12.6702 11.1287 12.81 11.4281 12.9633M10.5399 12.5437C10.6399 12.4885 10.7417 12.434 10.8453 12.3804M12.076 13.895C12.3451 14.0566 12.6151 14.2308 12.8825 14.4178L12.1826 13.7179L12.076 13.895ZM12.076 13.895L12.1824 13.7177L11.4281 12.9633M11.4281 12.9633L10.8453 12.3804M15.9888 17.8442C16.0093 17.9739 16.004 18.1064 15.9733 18.2341M15.9888 17.8442L15.9733 18.2341M15.9733 18.2341C15.9425 18.3617 15.887 18.4821 15.8097 18.5883M15.9733 18.2341L15.8097 18.5883M15.8097 18.5883C15.7324 18.6945 15.635 18.7845 15.523 18.853M15.8097 18.5883L15.523 18.853M15.523 18.853C15.411 18.9216 15.2866 18.9674 15.1568 18.9878M15.523 18.853L15.1568 18.9878M15.1568 18.9878C15.0271 19.0083 14.8946 19.003 14.767 18.9723M15.1568 18.9878L14.767 18.9723M14.767 18.9723C14.6393 18.9415 14.5189 18.886 14.4127 18.8087M14.767 18.9723L14.4127 18.8087M14.4127 18.8087C14.3065 18.7314 14.2166 18.634 14.148 18.522L14.4127 18.8087ZM16.282 10.746C17.1874 10.6183 18.0995 10.5415 19.014 10.5158L19.5 10.5022V10.016V4C19.5 3.60218 19.342 3.22065 19.0607 2.93934C18.7794 2.65804 18.3978 2.5 18 2.5H8.03511L7.03511 1.5H18C18.663 1.5 19.2989 1.76339 19.7678 2.23223C20.2366 2.70107 20.5 3.33696 20.5 4V10.4995C20.5 10.5417 20.4946 10.5837 20.484 10.6245L20.4515 10.75L20.484 10.8755C20.4946 10.9163 20.5 10.9583 20.5 11.0005V14.9647L16.282 10.746ZM5.53719 7.07329L7.9192 9.4553C7.76616 9.48686 7.62319 9.49987 7.50181 9.5C7.05986 9.49639 6.62952 9.35818 6.26813 9.10377C5.82799 8.78638 5.5 8.26199 5.5 7.5C5.5 7.34767 5.51309 7.20556 5.53719 7.07329Z" fill="#CFCFCF" stroke="#CFCFCF"/>
</svg>
