<svg width="130" height="130" viewBox="0 0 130 130" fill="none" xmlns="http://www.w3.org/2000/svg">
<path d="M7.33742 7L123 122.663" stroke="#CFCFCF" stroke-width="14" stroke-linecap="round" stroke-linejoin="round"/>
<path fill-rule="evenodd" clip-rule="evenodd" d="M5.92051 14.7089C4.01056 17.5608 2.9938 20.9171 3.00003 24.3494V85.0724C3.00003 85.5697 3.06364 86.0555 3.18509 86.5181C3.06267 86.9903 3.00049 87.4761 3.00003 87.9639V105.313C3.00003 109.915 4.82791 114.328 8.08155 117.581C11.3352 120.835 15.7481 122.663 20.3494 122.663H101.313C104.882 122.663 108.195 121.587 110.948 119.742L60.5075 69.296C57.3153 70.8401 54.3774 72.5229 51.6883 74.3099C56.4709 76.0044 61.8087 78.416 67.0541 81.5736C75.1447 86.4314 83.3683 93.2555 88.9027 102.295C89.2992 102.942 89.5641 103.662 89.6825 104.412C89.8008 105.162 89.7703 105.928 89.5925 106.667C89.4148 107.405 89.0933 108.101 88.6465 108.716C88.1997 109.33 87.6363 109.85 86.9885 110.246C86.3407 110.643 85.6212 110.908 84.8709 111.026C84.1207 111.144 83.3546 111.114 82.6162 110.936C81.8778 110.758 81.1816 110.437 80.5675 109.99C79.9533 109.543 79.4331 108.98 79.0367 108.332C74.7803 101.375 68.176 95.7365 61.0974 91.4858C54.0304 87.241 46.842 84.5924 41.8569 83.4357C34.8345 81.832 27.6441 81.0825 20.442 81.2034H20.3147C18.3022 81.2324 16.3822 81.3191 14.5663 81.4637V24.3494C14.565 24.0413 14.5901 23.7337 14.6415 23.4299L5.92051 14.7089ZM85.3345 61.4078C92.5209 60.1036 99.7957 59.3457 107.096 59.1408V24.3494C107.096 22.8156 106.487 21.3447 105.403 20.2601C104.318 19.1756 102.847 18.5663 101.313 18.5663H42.4873L30.921 7H101.313C105.915 7 110.328 8.82788 113.581 12.0815C116.835 15.3352 118.663 19.7481 118.663 24.3494V61.9398C118.662 62.4276 118.6 62.9134 118.478 63.3856C118.6 63.8578 118.662 64.3436 118.663 64.8314V94.7418L85.3345 61.4078ZM28.1335 36.922C26.8844 39.0039 26.1326 41.5658 26.1326 44.5904C26.1326 49.9456 28.4921 53.8492 31.7885 56.2203C34.3654 58.0384 37.4367 59.0252 40.5904 59.0482C42.655 59.0482 45.5176 58.5451 48.201 56.9952L28.1335 36.9277V36.922Z" fill="#CFCFCF"/>
</svg>
