<svg width="120" height="120" viewBox="0 0 120 120" fill="none" xmlns="http://www.w3.org/2000/svg">
<g clip-path="url(#clip0_1569_2448)">
<path d="M69.24 0L0 13.2V106.68L69.24 120V0ZM73.8 13.8V27.48H87.84V36.96H73.8V46.08H87.72V55.32H73.8V64.56H87.72V73.8H73.8V83.04H87.72V92.28H73.8V106.2H116.16C118.2 106.2 120 104.28 120 102.12V17.88C120 15.6 118.2 13.8 116.16 13.8H73.8ZM92.28 27.72H110.76V36.96H92.28V27.72ZM14.28 36.6H27L33.72 50.76C34.32 51.84 34.8 53.16 35.16 54.6C35.52 53.76 36.12 52.44 36.84 50.64L44.16 36.6H55.8L41.88 59.88L56.28 83.52H43.8L35.76 68.16C35.52 67.68 35.04 66.6 34.8 65.04H34.68C34.44 65.76 34.2 66.84 33.6 68.4L25.56 83.52H12.96L27.84 60.12L14.28 36.6ZM92.28 46.08H110.76V55.32H92.28V46.08ZM92.28 64.56H110.76V73.8H92.28V64.56ZM92.28 83.04H110.76V92.28H92.28V83.04Z" fill="#E3E3E3"/>
</g>
<defs>
<clipPath id="clip0_1569_2448">
<rect width="120" height="120" fill="white"/>
</clipPath>
</defs>
</svg>
