<svg width="30" height="30" viewBox="0 0 30 30" fill="none" xmlns="http://www.w3.org/2000/svg">
<path d="M15 28.3334C7.63618 28.3334 1.66665 22.3639 1.66665 15.0001C1.66665 7.63628 7.63618 1.66675 15 1.66675C22.3638 1.66675 28.3333 7.63628 28.3333 15.0001C28.3333 22.3639 22.3638 28.3334 15 28.3334Z" fill="white"/>
<path d="M15 20.3334L9.66665 15.0001L15 9.66675" fill="white"/>
<path d="M15 20.3334L9.66665 15.0001M9.66665 15.0001L15 9.66675M9.66665 15.0001H20.3333M1.66665 15.0001C1.66665 22.3639 7.63618 28.3334 15 28.3334C22.3638 28.3334 28.3333 22.3639 28.3333 15.0001C28.3333 7.63628 22.3638 1.66675 15 1.66675C7.63618 1.66675 1.66665 7.63628 1.66665 15.0001Z" stroke="#5F5F5F" stroke-width="2" stroke-linecap="round" stroke-linejoin="round"/>
</svg>
