<svg width="52" height="52" viewBox="0 0 52 52" fill="none" xmlns="http://www.w3.org/2000/svg">
<path d="M2 14.8C2 10.3196 2 8.07937 2.87195 6.36808C3.63893 4.86278 4.86278 3.63893 6.36808 2.87195C8.07937 2 10.3196 2 14.8 2H37.2C41.6804 2 43.9206 2 45.6319 2.87195C47.1372 3.63893 48.3611 4.86278 49.1281 6.36808C50 8.07937 50 10.3196 50 14.8V37.2C50 41.6804 50 43.9206 49.1281 45.6319C48.3611 47.1372 47.1372 48.3611 45.6319 49.1281C43.9206 50 41.6804 50 37.2 50H14.8C10.3196 50 8.07937 50 6.36808 49.1281C4.86278 48.3611 3.63893 47.1372 2.87195 45.6319C2 43.9206 2 41.6804 2 37.2V14.8Z" fill="white"/>
<path d="M36.6667 26L26 15.3333L15.3333 26" fill="white"/>
<path d="M36.6667 26L26 15.3333M26 15.3333L15.3333 26M26 15.3333V36.6667M14.8 50H37.2C41.6804 50 43.9206 50 45.6319 49.1281C47.1372 48.3611 48.3611 47.1372 49.1281 45.6319C50 43.9206 50 41.6804 50 37.2V14.8C50 10.3196 50 8.07937 49.1281 6.36808C48.3611 4.86278 47.1372 3.63893 45.6319 2.87195C43.9206 2 41.6804 2 37.2 2H14.8C10.3196 2 8.07937 2 6.36808 2.87195C4.86278 3.63893 3.63893 4.86278 2.87195 6.36808C2 8.07937 2 10.3196 2 14.8V37.2C2 41.6804 2 43.9206 2.87195 45.6319C3.63893 47.1372 4.86278 48.3611 6.36808 49.1281C8.07937 50 10.3196 50 14.8 50Z" stroke="#1479FF" stroke-width="3" stroke-linecap="round" stroke-linejoin="round"/>
</svg>
