<svg width="28" height="28" viewBox="0 0 28 28" fill="none" xmlns="http://www.w3.org/2000/svg">
<path d="M10.961 22.5996L11.6428 24.1331C11.8455 24.5896 12.1763 24.9775 12.5951 25.2497C13.0139 25.5219 13.5026 25.6667 14.0021 25.6666C14.5015 25.6667 14.9903 25.5219 15.4091 25.2497C15.8278 24.9775 16.1586 24.5896 16.3613 24.1331L17.0432 22.5996C17.2859 22.0555 17.6942 21.6018 18.2099 21.3033C18.7288 21.004 19.3291 20.8765 19.9249 20.9391L21.5932 21.1166C22.0898 21.1692 22.591 21.0765 23.036 20.8499C23.481 20.6232 23.8507 20.2724 24.1002 19.8398C24.3501 19.4075 24.4691 18.912 24.4429 18.4133C24.4167 17.9147 24.2463 17.4344 23.9524 17.0307L22.9647 15.6735C22.6129 15.1866 22.425 14.6006 22.428 14C22.4279 13.401 22.6176 12.8174 22.9699 12.3329L23.9576 10.9757C24.2515 10.572 24.4219 10.0917 24.4481 9.5931C24.4743 9.09447 24.3553 8.59894 24.1054 8.16665C23.8559 7.73409 23.4862 7.38322 23.0412 7.15658C22.5962 6.92994 22.095 6.83727 21.5984 6.88979L19.93 7.06739C19.3343 7.12996 18.734 7.00245 18.215 6.70313C17.6984 6.40294 17.29 5.9469 17.0484 5.40035L16.3613 3.86683C16.1586 3.41035 15.8278 3.02248 15.4091 2.75028C14.9903 2.47808 14.5015 2.33323 14.0021 2.33331C13.5026 2.33323 13.0139 2.47808 12.5951 2.75028C12.1763 3.02248 11.8455 3.41035 11.6428 3.86683L10.961 5.40035C10.7194 5.9469 10.311 6.40294 9.7943 6.70313C9.27538 7.00245 8.67508 7.12996 8.0793 7.06739L6.40578 6.88979C5.90916 6.83727 5.40797 6.92994 4.96298 7.15658C4.51798 7.38322 4.1483 7.73409 3.89874 8.16665C3.64887 8.59894 3.52982 9.09447 3.55605 9.5931C3.58228 10.0917 3.75266 10.572 4.04652 10.9757L5.0343 12.3329C5.38656 12.8174 5.57626 13.401 5.57615 14C5.57626 14.599 5.38656 15.1826 5.0343 15.667L4.04652 17.0242C3.75266 17.4279 3.58228 17.9082 3.55605 18.4069C3.52982 18.9055 3.64887 19.401 3.89874 19.8333C4.14854 20.2656 4.51827 20.6163 4.96321 20.8429C5.40814 21.0695 5.9092 21.1624 6.40578 21.1102L8.07411 20.9326C8.66989 20.87 9.2702 20.9975 9.78911 21.2968C10.3077 21.5962 10.718 22.0523 10.961 22.5996Z" stroke="white" stroke-width="2" stroke-linecap="round" stroke-linejoin="round"/>
<path d="M14 17.5C15.933 17.5 17.5 15.933 17.5 14C17.5 12.067 15.933 10.5 14 10.5C12.067 10.5 10.5 12.067 10.5 14C10.5 15.933 12.067 17.5 14 17.5Z" stroke="white" stroke-width="2" stroke-linecap="round" stroke-linejoin="round"/>
</svg>
